<?xml version="1.0" encoding="UTF-8" standalone="no"?>
<!-- Created with Inkscape (http://www.inkscape.org/) -->

<svg
   xmlns:dc="http://purl.org/dc/elements/1.1/"
   xmlns:cc="http://creativecommons.org/ns#"
   xmlns:rdf="http://www.w3.org/1999/02/22-rdf-syntax-ns#"
   xmlns:svg="http://www.w3.org/2000/svg"
   xmlns="http://www.w3.org/2000/svg"
   xmlns:xlink="http://www.w3.org/1999/xlink"
   xmlns:sodipodi="http://sodipodi.sourceforge.net/DTD/sodipodi-0.dtd"
   xmlns:inkscape="http://www.inkscape.org/namespaces/inkscape"
   width="744.09448819"
   height="1052.3622047"
   id="svg2"
   version="1.1"
   inkscape:version="0.47 r22583"
   sodipodi:docname="mememe.svg"
   inkscape:export-filename="/home/lincoln/Desktop/yahoo_logo_br_061509.png"
   inkscape:export-xdpi="90"
   inkscape:export-ydpi="90">
  <defs
     id="defs4">
    <linearGradient
       inkscape:collect="always"
       id="linearGradient4536">
      <stop
         style="stop-color:#592c71;stop-opacity:1;"
         offset="0"
         id="stop4538" />
      <stop
         style="stop-color:#592c71;stop-opacity:0;"
         offset="1"
         id="stop4540" />
    </linearGradient>
    <linearGradient
       inkscape:collect="always"
       id="linearGradient3802">
      <stop
         style="stop-color:#75507b;stop-opacity:1;"
         offset="0"
         id="stop3804" />
      <stop
         style="stop-color:#75507b;stop-opacity:0;"
         offset="1"
         id="stop3806" />
    </linearGradient>
    <inkscape:perspective
       sodipodi:type="inkscape:persp3d"
       inkscape:vp_x="0 : 526.18109 : 1"
       inkscape:vp_y="0 : 1000 : 0"
       inkscape:vp_z="744.09448 : 526.18109 : 1"
       inkscape:persp3d-origin="372.04724 : 350.78739 : 1"
       id="perspective10" />
    <radialGradient
       inkscape:collect="always"
       xlink:href="#linearGradient3802"
       id="radialGradient3810"
       cx="397.5506"
       cy="259.08823"
       fx="397.5506"
       fy="259.08823"
       r="138.76459"
       gradientTransform="matrix(1,-3.3625712e-8,1.6825334e-8,0.50037107,-5.3889589e-6,129.44799)"
       gradientUnits="userSpaceOnUse" />
    <inkscape:perspective
       id="perspective3997"
       inkscape:persp3d-origin="0.5 : 0.33333333 : 1"
       inkscape:vp_z="1 : 0.5 : 1"
       inkscape:vp_y="0 : 1000 : 0"
       inkscape:vp_x="0 : 0.5 : 1"
       sodipodi:type="inkscape:persp3d" />
    <inkscape:perspective
       id="perspective4208"
       inkscape:persp3d-origin="400 : 50.553711 : 1"
       inkscape:vp_z="800 : 75.830566 : 1"
       inkscape:vp_y="0 : 1000 : 0"
       inkscape:vp_x="0 : 75.830566 : 1"
       sodipodi:type="inkscape:persp3d" />
    <inkscape:perspective
       id="perspective4304"
       inkscape:persp3d-origin="0.5 : 0.33333333 : 1"
       inkscape:vp_z="1 : 0.5 : 1"
       inkscape:vp_y="0 : 1000 : 0"
       inkscape:vp_x="0 : 0.5 : 1"
       sodipodi:type="inkscape:persp3d" />
    <linearGradient
       inkscape:collect="always"
       xlink:href="#linearGradient4536"
       id="linearGradient4542"
       x1="277.30798"
       y1="15.789443"
       x2="277.30798"
       y2="169.62315"
       gradientUnits="userSpaceOnUse"
       gradientTransform="matrix(0.02898549,0,0,0.86956521,-267.39036,17.958438)" />
  </defs>
  <sodipodi:namedview
     id="base"
     pagecolor="#ffffff"
     bordercolor="#666666"
     borderopacity="1.0"
     inkscape:pageopacity="0.0"
     inkscape:pageshadow="2"
     inkscape:zoom="1"
     inkscape:cx="196.33417"
     inkscape:cy="833.1685"
     inkscape:document-units="px"
     inkscape:current-layer="layer1"
     showgrid="false"
     inkscape:window-width="1280"
     inkscape:window-height="729"
     inkscape:window-x="0"
     inkscape:window-y="24"
     inkscape:window-maximized="1"
     showguides="true"
     inkscape:guide-bbox="true" />
  <metadata
     id="metadata7">
    <rdf:RDF>
      <cc:Work
         rdf:about="">
        <dc:format>image/svg+xml</dc:format>
        <dc:type
           rdf:resource="http://purl.org/dc/dcmitype/StillImage" />
        <dc:title />
      </cc:Work>
    </rdf:RDF>
  </metadata>
  <g
     inkscape:label="Layer 1"
     inkscape:groupmode="layer"
     id="layer1">
    <path
       sodipodi:nodetypes="cccccccccccc"
       id="path3673"
       d="m 1004.0397,313.96272 44.813,0 -20.6988,37.89151 13.1228,0 -13.1036,29.01909 12.414,0 -35.6945,39.73712 12.6313,-39.73712 -14.8257,0 6.0513,-29.01909 -12.70431,0 7.99451,-37.89151 z"
       style="fill:#729fcf;fill-opacity:1;stroke:none" />
    <path
       style="fill:#3465a4;fill-opacity:1;stroke:none"
       d="m 1102.3911,397.54102 47.9914,0 -22.1668,40.57907 14.0535,0 -14.033,31.07734 13.2945,0 -38.2262,42.55558 13.5272,-42.55558 -15.8772,0 6.4804,-31.07734 -13.6054,0 8.5616,-40.57907 z"
       id="path3675"
       sodipodi:nodetypes="cccccccccccc" />
    <g
       id="g3737"
       transform="translate(-198.54406,8.9233286)">
      <g
         id="g3742"
         transform="matrix(1,0.04406482,0,1,2.2308321,-17.096866)" />
    </g>
    <g
       id="g4377"
       transform="translate(887.68556,-299.86993)">
      <path
         id="path2816"
         d="M 114.47631,69.206022 C 64.962997,69.616782 -15.586733,112.89967 14.288817,187.98727 c -3.00112,-0.34751 -5.9947703,-0.37175 -8.9062503,0 -18.3717097,2.34578 -26.1815797,18.82604 -23.7812497,37.625 1.52253,11.92419 23.5357097,19.65544 39.59375,26.75 9.25809,4.0903 12.40648,11.29535 19.125,10.4375 6.40777,-0.81817 9.61452,-4.34421 10.9375,-9.375 1.42747,3.3191 2.7817,6.78168 4.125,10.34375 10.13983,26.88806 13.00504,19.15194 80.531243,40.46875 48.22871,15.22494 45.43948,13.343 60.78125,-31.5625 7.4381,-21.77138 49.84885,-31.65419 29.125,-61.90625 C 267.41383,103.90403 177.66732,68.686102 114.47631,69.206022 z"
         style="fill:#592c71;fill-opacity:1;stroke:none" />
      <path
         style="fill:#ffffff;fill-opacity:0.97058835;stroke:none"
         d="m 184.88314,234.78002 c -2.50823,13.92653 -6.2354,19.81387 5.11614,19.86819 17.32023,0.0829 33.3536,-19.6896 35.86183,-33.61613 2.50823,-13.92654 -8.13338,-20.00659 -14.86176,-10.86388 -10.9953,14.94071 -23.95967,23.19657 -26.11621,24.61182 z"
         id="path3607"
         sodipodi:nodetypes="csssc" />
      <path
         style="fill:#592c71;fill-opacity:1;stroke:none"
         d="m 165.14976,260.69087 c -2.89718,-8.44448 -8.89628,-18.94783 -1.01467,-21.91241 2.8823,-1.08415 4.98134,1.92528 9.46848,2.86859 7.78288,1.63615 18.25034,2.95176 20.08803,8.3081 2.89717,8.44449 1.06903,16.86114 -6.81258,19.82573 -7.88162,2.96459 -18.83208,-0.64552 -21.72926,-9.09001 z"
         id="path3611"
         sodipodi:nodetypes="cssssc" />
      <path
         sodipodi:nodetypes="csssc"
         id="path3604"
         d="m 185.15508,234.65775 c 0,20.10015 -21.43838,36.39455 -47.88396,36.39455 -26.44558,0 -54.593793,-30.3323 -54.593793,-50.43245 0,-20.10016 38.301053,-42.6481 54.593793,-22.35666 14.39095,17.9229 30.09867,42.73768 47.88396,36.39456 z"
         style="fill:#ffffff;fill-opacity:0.97058835;stroke:none" />
      <path
         style="fill:#ffffff;fill-opacity:1"
         id="path4227"
         d="m 225.07933,159.86974 c -1.61539,0.15961 -8.34018,1.66618 -10.60045,2.15064 -2.42027,0.64406 -24.53245,17.72747 -25.98502,21.92235 -0.32203,1.45176 -0.48345,3.68542 -0.48345,5.78448 l -0.16202,3.39039 c 0,2.41907 0.67207,6.32054 0.9939,8.41798 1.45378,0.32404 11.97503,0.0411 13.91125,0.36274 l -0.2382,4.33916 c -1.89188,-0.13783 -15.25217,-0.10559 -22.88501,-0.10559 -3.87466,0 -16.33012,0.42722 -20.15701,0.31195 l 0.72346,-4.12636 c 2.09845,-0.16283 10.78686,0.37483 12.69688,-1.64119 0.94876,-1.00035 0.64648,-2.07245 0.64648,-7.88192 l 0,-2.74312 c 0,-1.29135 0,-3.71364 -0.32385,-5.9739 -0.80649,-2.42149 -20.28256,-26.73952 -25.28574,-30.61197 -1.45378,-0.48365 -10.55732,-1.39413 -12.81658,-1.87939 l -0.11245,-3.71727 c 1.12711,-0.56507 11.25015,0.13744 21.07394,-0.22611 6.45636,-0.2386 21.1876,0 23.00512,0.21643 l -0.46572,3.27594 c -1.93622,0.48486 -11.26406,0.66422 -13.68554,1.30908 6.29514,9.3611 16.24809,21.41291 19.47667,26.09385 1.77642,-2.5819 17.37944,-13.31655 17.86309,-17.02858 -2.42188,-0.48608 -10.43822,-1.63959 -11.72997,-1.63959 l -0.76679,-4.22631 c 2.19759,-0.3438 13.75285,0 19.49763,0 4.95784,0 15.55183,0 18.56217,0.24666 l -2.75279,3.97965" />
    </g>
    <path
       style="fill:#592c71"
       id="path2217"
       d="m 948.87631,929.87563 c -2.57213,0.25414 -13.27974,2.653 -16.87868,3.42439 -3.85371,1.02551 -39.06206,28.22674 -41.37493,34.90608 -0.51276,2.31158 -0.76977,5.86816 -0.76977,9.2104 l -0.25799,5.3984 c 0,3.85179 1.07012,10.06394 1.58255,13.40361 2.3148,0.51596 19.06737,0.0654 22.15034,0.57757 l -0.37927,6.90912 c -3.01238,-0.2195 -24.28544,-0.1682 -36.43891,-0.1682 -6.16947,0 -26.0018,0.6803 -32.09522,0.4967 l 1.15194,-6.5702 c 3.34128,-0.25927 17.17549,0.59683 20.21675,-2.6132 1.51067,-1.59283 1.02936,-3.29989 1.02936,-12.55008 v -4.36775 c 0,-2.05617 0,-5.91309 -0.51565,-9.51202 -1.28414,-3.85564 -32.29512,-42.57629 -40.26149,-48.74223 -2.31479,-0.7701 -16.81001,-2.21982 -20.40734,-2.99248 l -0.17905,-5.91887 c 1.79466,-0.89973 17.91318,0.21884 33.55521,-0.36002 10.28019,-0.37991 33.73617,0 36.63014,0.34462 l -0.74154,5.21615 c -3.08297,0.77202 -17.93532,1.0576 -21.79096,2.0844 10.0235,14.9053 25.87121,34.09492 31.01195,41.54821 2.82852,-4.11106 27.6726,-21.20343 28.4427,-27.11395 -3.85628,-0.77396 -16.62038,-2.61065 -18.67718,-2.61065 l -1.22093,-6.72939 c 3.49914,-0.54741 21.89812,0 31.04531,0 7.89417,0 24.76258,0 29.55581,0.39275 l -4.38315,6.33664" />
    <path
       style="fill:#592c71"
       id="path2219"
       d="m 959.61729,949.3027 -0.16044,-1.02102 c -2.91548,6.80448 -7.86658,17.49604 -8.83754,20.08614 l 15.95263,-0.007 c -1.94451,-5.0217 -5.4966,-14.84754 -6.95465,-19.05806 m 42.36511,51.52554 c -1.1314,-0.1637 -14.00937,-0.1618 -18.70506,-0.1618 -2.75567,0 -16.78113,-0.082 -19.21272,-0.082 l 0.72902,-6.0183 c 3.24213,-0.16108 9.26817,-1.47346 12.02384,-1.79691 -1.7815,-4.04687 -7.66057,-16.90306 -8.95627,-19.33209 -3.40192,0 -15.63624,0.38313 -19.03816,1.03066 -0.64689,1.13461 -5.29124,5.68912 -6.09856,11.8435 2.26859,0.48516 6.61837,1.42083 9.20912,1.74363 l -0.95813,6.15054 c -2.75247,-0.16172 -13.73474,0.16108 -16.32613,0 -2.43224,0 -13.7171,0.0269 -15.82364,0.3504 l 2.00611,-6.50094 c 2.59011,-0.3228 8.56223,-2.17938 10.82697,-2.66262 3.4032,-4.85804 19.15689,-35.65244 20.45387,-38.56919 -2.10815,-0.48709 -5.68527,-2.18003 -7.95578,-2.50347 l -0.31125,-4.4499 c 2.75439,0.16429 16.44293,0.57501 17.89713,0.50249 3.25689,-0.15916 15.34618,-0.0995 18.10122,-0.25862 l -1.02103,4.37032 c -2.42902,0.15915 -6.38093,1.34382 -8.65015,1.82898 1.13397,3.40128 5.64483,14.36687 9.04675,22.46512 2.59203,5.83351 6.89368,17.2618 10.94249,23.90392 2.75246,0.48516 9.06986,2.33981 11.98536,2.5009 l 0.1636,1.62299 -0.3286,4.02189 z" />
    <path
       style="fill:#592c71"
       id="path2221"
       d="m 1096.864,984.15873 c -2.234,-0.17199 -12.9833,-0.15659 -18.4799,0 -4.4082,0.1245 -14.8803,-0.40045 -19.8654,-0.18418 l -0.3805,-6.10754 c 1.7173,-0.17327 12.4416,-0.9023 14.5022,-1.24884 0.6867,-3.26331 0.3581,-7.89418 0.3581,-11.84159 l -0.265,-7.19145 c -5.4985,0 -41.8473,1.89124 -43.3945,2.06002 l -2.6556,0.34654 c 0,9.79761 0.5153,12.89341 1.2033,16.50197 2.9232,0.51212 13.4081,1.20008 15.6401,1.54662 l -0.1354,6.65624 c -2.5799,-0.17263 -18.7025,0 -23.6877,0 -6.0132,0 -20.6393,-0.12963 -24.07716,0.0424 l 0.46591,-6.87186 c 2.7499,-0.17328 13.14565,-1.19687 15.38015,-1.53892 0.344,-4.47364 0.5154,-11.51557 0.5154,-18.90725 v -9.109 c 0,-3.09325 -0.1714,-12.03026 -0.3446,-15.12606 -2.2346,-0.33885 -12.63034,-1.03578 -15.72358,-1.20714 l -0.54869,-5.20395 c 2.06194,0.17456 16.41277,-0.21884 23.97327,-0.21884 7.047,0 23.0253,0.13926 24.9159,-0.0346 l -0.5602,5.45744 c -3.2653,0.17136 -14.0935,1.03065 -15.9835,1.37399 -0.5179,2.58048 -1.0332,4.8157 -1.0332,13.06347 l -0.2535,4.29973 c 3.0933,0 41.4353,-0.15081 46.2105,-0.83107 v -5.92271 c 0,-7.5611 1.1738,-15.73636 0.3158,-17.9735 -1.8919,-0.51276 -12.1355,-1.95542 -15.4033,-2.12933 l 0.4582,-5.48633 c 2.0632,0.17328 11.7196,0.11488 18.9361,0.28751 7.5624,0 18.5492,0.31061 20.7825,-0.0327 l -0.5076,4.51856 c -2.2333,0.17328 -12.1978,2.69279 -12.1978,2.69279 0,0 -0.6803,4.70917 -0.1803,11.48284 0.4126,5.62494 0.5384,16.68872 0.5384,16.68872 0.2849,12.31904 1.0448,22.27387 0.3587,22.79176 -0.8265,0.61673 7.8903,1.14745 10.2944,1.49336 l 0.9408,1.63261 -0.1123,4.23041" />
    <path
       style="fill:#592c71"
       id="path2223"
       d="m 1171.694,956.88242 c 0.6225,-17.37026 -12.973,-21.99407 -30.1475,-20.81518 -8.9865,0.61737 -27.2738,5.36824 -27.2738,20.81518 0,15.26595 14.028,23.53298 32.746,21.90037 14.4868,-1.2604 22.0897,-6.59463 23.9559,-14.00621 l 0.7194,-7.89416 m 13.8169,-1.4356 c 0.8156,20.99037 -18.3509,31.40213 -43.2457,31.40213 -10.3604,0 -22.9708,-1.97402 -33.7368,-8.43388 -8.3992,-5.04031 -9.7899,-11.57782 -9.7899,-19.755 0,-16.90307 18.4009,-30.91505 46.5712,-30.73279 10.7211,0 21.0565,1.63518 29.4101,8.15023 7.4546,5.81362 8.7137,8.70085 10.0723,15.06188 l 0.7188,4.30743 z" />
    <path
       style="fill:#592c71"
       id="path2225"
       d="m 1303.4639,990.80213 -5.9631,-0.51147 -0.063,-12.91587 7.5495,0.9408 6.766,0.31382 -1.8778,12.64698 -6.411,-0.47426 m 7.6811,-22.81486 -11.128,-1.08007 c 1.1674,-5.62687 0.1515,-48.82373 0.061,-53.43214 l -0.5731,-9.07435 c 3.1003,0.61095 2.6306,0.29007 15.712,1.66598 7.9603,0.83556 8.9993,1.19237 11.6189,1.2957 l -3.4192,10.76087 c -2.9174,8.60651 -11.3738,46.98896 -12.2716,49.86401 z" />
    <path
       style="fill:#592c71"
       id="path2227"
       d="m 1275.0511,949.70572 c 1.1834,-18.87388 -17.0006,-25.74895 -36.6048,-24.40513 -10.2597,0.70272 -29.4294,6.76983 -29.4294,24.40513 0,17.42545 16.0425,26.21037 37.4172,24.34929 16.5328,-1.44073 23.4156,-7.66057 27.1833,-16.09381 0,0 1.0775,-2.51438 1.4337,-8.25548 m 14.8308,-2.78777 c 1.4677,19.65554 -21.2162,35.98167 -49.6426,35.98167 -11.8242,0 -21.8907,-1.43367 -33.5552,-9.14816 -9.5929,-6.34627 -14.1756,-11.84478 -15.3725,-22.6724 -2.1216,-19.17742 21.0071,-35.29306 53.1665,-35.08577 12.242,0 24.0374,1.86236 33.5796,9.30346 8.5064,6.63441 9.9946,12.93062 11.5476,20.19781 l 0.2766,1.42339 z" />
    <path
       style="fill:#592c71"
       id="path2229"
       d="m 1323.579,984.64197 h 1.1513 c 0.9985,0 1.9656,-0.0507 1.9656,-1.23408 0,-1.01782 -0.8836,-1.13719 -1.6435,-1.13719 h -1.4734 v 2.37127 m -1.118,-3.28769 h 2.7769 c 1.7449,0 2.5753,0.69373 2.5753,2.10238 0,1.33868 -0.8464,1.89958 -1.9477,2.01574 l 2.1197,3.25559 h -1.2039 l -1.9984,-3.17024 h -1.2039 v 3.17024 h -1.118 v -7.37371 l 0,0 z m 2.4034,9.0859 c 2.8821,0 5.1866,-2.33982 5.1866,-5.3907 0,-3.05088 -2.3045,-5.3907 -5.1866,-5.3907 -2.8969,0 -5.186,2.33982 -5.186,5.3907 0,3.05088 2.2891,5.3907 5.186,5.3907 z m 0,-11.69718 c 3.4244,0 6.3065,2.71332 6.3065,6.30648 0,3.5938 -2.8821,6.30648 -6.3065,6.30648 -3.4392,0 -6.3027,-2.71268 -6.3027,-6.30648 0,-3.59316 2.8635,-6.30648 6.3027,-6.30648 z" />
    <text
       id="text4431"
       y="148.13483"
       x="-136.03419"
       style="font-size:40px;font-style:normal;font-weight:normal;fill:#000000;fill-opacity:1;stroke:none;font-family:Bitstream Vera Sans"
       xml:space="preserve"><tspan
         y="148.13483"
         x="-136.03419"
         id="tspan4433"
         sodipodi:role="line" /></text>
    <g
       id="g4384"
       transform="translate(970.7757,137.90786)">
      <path
         style="fill:#592c71;fill-opacity:1;stroke:none"
         d="m 69.907666,415.33496 c -49.51332,0.41076 -130.06305,43.69365 -100.1875,118.78125 -3.00112,-0.34751 -5.99477,-0.37175 -8.90625,0 -18.37171,2.34578 -26.18158,18.82604 -23.78125,37.625 1.52253,11.92419 23.53571,19.65544 39.59375,26.75 9.25809,4.0903 12.40648,11.29535 19.1250001,10.4375 6.40777,-0.81817 9.61452,-4.34421 10.9375,-9.375 1.42747,3.3191 2.7817,6.78168 4.1249999,10.34375 10.13983,26.88806 13.00504,19.15194 80.53125,40.46875 48.228714,15.22494 45.439484,13.343 60.781254,-31.5625 7.4381,-21.77138 49.84885,-31.65419 29.125,-61.90625 C 222.84519,450.03297 133.09868,414.81504 69.907666,415.33496 z"
         id="path4262" />
      <path
         sodipodi:nodetypes="csssc"
         id="path4264"
         d="m 140.3145,580.90896 c -2.50823,13.92653 -6.2354,19.81387 5.11614,19.86819 17.32023,0.0829 33.3536,-19.6896 35.86183,-33.61613 2.50823,-13.92654 -8.13338,-20.00659 -14.86176,-10.86388 -10.9953,14.94071 -23.95967,23.19657 -26.11621,24.61182 z"
         style="fill:#ffffff;fill-opacity:0.97058835;stroke:none" />
      <path
         style="fill:#ffffff;fill-opacity:0.97058835;stroke:none"
         d="m 140.58644,580.78669 c 0,20.10015 -21.43838,36.39455 -47.883964,36.39455 -26.44559,0 -54.5938,-30.3323 -54.5938,-50.43245 0,-20.10016 38.30106,-42.6481 54.5938,-22.35666 14.390954,17.9229 30.098674,42.73768 47.883964,36.39456 z"
         id="path4266"
         sodipodi:nodetypes="csssc" />
      <g
         transform="translate(-335.4723,284.53736)"
         id="g4257">
        <path
           style="fill:#ffffff;fill-opacity:0.97058835;stroke:none"
           d="m 445.87796,258.33361 c 0,14.18161 11.49647,25.6781 25.67809,25.6781 29.52504,-4.90416 28.6996,-46.934 0,-51.35621 -14.18162,0 -25.67809,11.49649 -25.67809,25.67811 z"
           id="path3765"
           sodipodi:nodetypes="cccs" />
        <path
           id="path3767"
           d="m 464.34196,249.35295 0,4.35618 c -2.92556,0 -5.27993,2.38091 -5.27993,5.30645 0,2.92556 2.35437,5.30647 5.27993,5.30647 l 0,4.51044 5.30316,-0.45888 0,-18.80522 -5.30316,-0.21544 z"
           style="fill:#592c71;fill-opacity:1;stroke:none"
           sodipodi:nodetypes="ccsccccc" />
        <path
           style="fill:#592c71;fill-opacity:1;stroke:none"
           d="m 480.97724,251.44953 0,3.10226 c 2.69752,0 4.86841,2.19534 4.86841,4.89287 0,2.69754 -2.17089,4.89288 -4.86841,4.89288 l 0,2.16765 -4.89286,0.42558 0,-7.48611 0,-8.18999 4.89286,0.19486 0,0 z"
           id="path3769"
           sodipodi:nodetypes="ccsccccccc" />
      </g>
    </g>
    <g
       id="g4366"
       transform="translate(936.36652,-257.76748)">
      <g
         transform="translate(-351.12527,-106.52229)"
         id="g4282">
        <rect
           style="fill:#592c71;fill-opacity:1;stroke:none"
           id="rect3615"
           width="87.608376"
           height="87.608376"
           x="-667.46417"
           y="194.90302"
           transform="scale(-1,1)"
           ry="3.857964" />
        <path
           sodipodi:type="arc"
           style="fill:#ffffff;fill-opacity:0.97058835;stroke:none"
           id="path3617"
           sodipodi:cx="521.22205"
           sodipodi:cy="222.82623"
           sodipodi:rx="36.654518"
           sodipodi:ry="36.654518"
           d="m 557.87656,222.82623 c 0,20.24373 -16.41078,36.65452 -36.65451,36.65452 -20.24374,0 -36.65452,-16.41079 -36.65452,-36.65452 0,-20.24373 16.41078,-36.65452 36.65452,-36.65452 20.24373,0 36.65451,16.41079 36.65451,36.65452 z"
           transform="matrix(-0.9207805,0,0,0.9207805,1104.18,33.533147)" />
        <path
           style="fill:#592c71;fill-opacity:1;stroke:none"
           d="m 609.23718,228.86763 0,3.40848 c -3.54558,0 -6.39894,2.88551 -6.39894,6.43109 0,3.54558 2.85336,6.4311 6.39894,6.4311 l 0,3.40848 6.43109,0 0,-9.83958 0,-9.83957 -6.43109,0 z"
           id="rect3619" />
        <path
           id="path3624"
           d="m 639.26074,228.86763 0,3.40848 c 3.54558,0 6.39894,2.88551 6.39894,6.43109 0,3.54558 -2.85336,6.4311 -6.39894,6.4311 l 0,3.40848 -6.43109,0 0,-9.83958 0,-9.83957 6.43109,0 z"
           style="fill:#592c71;fill-opacity:1;stroke:none" />
      </g>
      <text
         sodipodi:linespacing="125%"
         id="text3630"
         y="208.509"
         x="226.48392"
         style="font-size:37.40604401px;font-style:normal;font-variant:normal;font-weight:bold;font-stretch:normal;text-align:start;line-height:125%;writing-mode:lr-tb;text-anchor:start;fill:#592c71;fill-opacity:1;stroke:none;font-family:Liberation Mono;-inkscape-font-specification:Liberation Mono Bold"
         xml:space="preserve"><tspan
           y="208.509"
           x="226.48392"
           id="tspan3632"
           sodipodi:role="line">TEAM</tspan></text>
      <text
         xml:space="preserve"
         style="font-size:37.40604401px;font-style:normal;font-variant:normal;font-weight:bold;font-stretch:normal;text-align:start;line-height:125%;writing-mode:lr-tb;text-anchor:start;fill:#592c71;fill-opacity:1;stroke:none;font-family:Liberation Mono;-inkscape-font-specification:Liberation Mono Bold"
         x="226.48392"
         y="80.509033"
         id="text4278"
         sodipodi:linespacing="125%"><tspan
           sodipodi:role="line"
           id="tspan4280"
           x="226.48392"
           y="80.509033">220V</tspan></text>
    </g>
    <g
       id="g4393"
       transform="translate(581.32802,-209.43738)">
      <rect
         ry="0"
         y="381.05154"
         x="452.82587"
         height="93.247742"
         width="183.5195"
         id="rect4288"
         style="fill:#592c71;fill-opacity:1;stroke:none" />
      <rect
         ry="3.159019"
         transform="scale(-1,1)"
         y="390.36917"
         x="-534.05133"
         height="71.73642"
         width="71.73642"
         id="rect3615-8"
         style="fill:#eeeeec;fill-opacity:1;stroke:none" />
      <path
         transform="matrix(-0.75396326,0,0,0.75396326,891.64761,258.23458)"
         d="m 557.87656,222.82623 c 0,20.24373 -16.41078,36.65452 -36.65451,36.65452 -20.24374,0 -36.65452,-16.41079 -36.65452,-36.65452 0,-20.24373 16.41078,-36.65452 36.65452,-36.65452 20.24373,0 36.65451,16.41079 36.65451,36.65452 z"
         sodipodi:ry="36.654518"
         sodipodi:rx="36.654518"
         sodipodi:cy="222.82623"
         sodipodi:cx="521.22205"
         id="path3617-9"
         style="fill:#ffffff;fill-opacity:0.97058835;stroke:none"
         sodipodi:type="arc" />
      <path
         id="rect3619-7"
         d="m 486.37328,418.18042 0,2.79097 c -2.90323,0 -5.23965,2.36275 -5.23965,5.26598 0,2.90323 2.33642,5.26598 5.23965,5.26598 l 0,2.79097 5.26597,0 0,-8.05695 0,-8.05695 -5.26597,0 z"
         style="fill:#592c71;fill-opacity:1;stroke:none" />
      <path
         style="fill:#592c71;fill-opacity:1;stroke:none"
         d="m 510.95749,418.18042 0,2.79097 c 2.90323,0 5.23965,2.36275 5.23965,5.26598 0,2.90323 -2.33642,5.26598 -5.23965,5.26598 l 0,2.79097 -5.26597,0 0,-8.05695 0,-8.05695 5.26597,0 z"
         id="path3624-3" />
      <text
         sodipodi:linespacing="125%"
         id="text3630-6"
         y="461.21771"
         x="539.5368"
         style="font-size:37.40604401px;font-style:normal;font-variant:normal;font-weight:bold;font-stretch:normal;text-align:start;line-height:125%;writing-mode:lr-tb;text-anchor:start;fill:#eeeeec;fill-opacity:1;stroke:none;font-family:Liberation Mono;-inkscape-font-specification:Liberation Mono Bold"
         xml:space="preserve"><tspan
           y="461.21771"
           x="539.5368"
           id="tspan3632-1"
           sodipodi:role="line">TEAM</tspan></text>
      <text
         xml:space="preserve"
         style="font-size:37.40604401px;font-style:normal;font-variant:normal;font-weight:bold;font-stretch:normal;text-align:start;line-height:125%;writing-mode:lr-tb;text-anchor:start;fill:#eeeeec;fill-opacity:1;stroke:none;font-family:Liberation Mono;-inkscape-font-specification:Liberation Mono Bold"
         x="538.40442"
         y="416.5455"
         id="text4278-2"
         sodipodi:linespacing="125%"><tspan
           sodipodi:role="line"
           id="tspan4280-9"
           x="538.40442"
           y="416.5455">220V</tspan></text>
    </g>
    <g
       transform="matrix(0.81227513,0,0,0.81227513,787.56094,138.8866)"
       id="g4342">
      <rect
         style="fill:#592c71;fill-opacity:1;stroke:none"
         id="rect4344"
         width="87.608376"
         height="87.608376"
         x="-667.46417"
         y="194.90302"
         transform="scale(-1,1)"
         ry="3.857964" />
      <path
         sodipodi:type="arc"
         style="fill:#ffffff;fill-opacity:0.97058835;stroke:none"
         id="path4346"
         sodipodi:cx="521.22205"
         sodipodi:cy="222.82623"
         sodipodi:rx="36.654518"
         sodipodi:ry="36.654518"
         d="m 557.87656,222.82623 c 0,20.24373 -16.41078,36.65452 -36.65451,36.65452 -20.24374,0 -36.65452,-16.41079 -36.65452,-36.65452 0,-20.24373 16.41078,-36.65452 36.65452,-36.65452 20.24373,0 36.65451,16.41079 36.65451,36.65452 z"
         transform="matrix(-0.9207805,0,0,0.9207805,1104.18,33.533147)" />
      <path
         style="fill:#592c71;fill-opacity:1;stroke:none"
         d="m 609.23718,228.86763 0,3.40848 c -3.54558,0 -6.39894,2.88551 -6.39894,6.43109 0,3.54558 2.85336,6.4311 6.39894,6.4311 l 0,3.40848 6.43109,0 0,-9.83958 0,-9.83957 -6.43109,0 z"
         id="path4348" />
      <path
         id="path4350"
         d="m 639.26074,228.86763 0,3.40848 c 3.54558,0 6.39894,2.88551 6.39894,6.43109 0,3.54558 -2.85336,6.4311 -6.39894,6.4311 l 0,3.40848 -6.43109,0 0,-9.83958 0,-9.83957 6.43109,0 z"
         style="fill:#592c71;fill-opacity:1;stroke:none" />
    </g>
    <text
       sodipodi:linespacing="125%"
       id="text4352"
       y="366.67526"
       x="1335.0756"
       style="font-size:37.40604401px;font-style:normal;font-variant:normal;font-weight:bold;font-stretch:normal;text-align:start;line-height:125%;writing-mode:lr-tb;text-anchor:start;fill:#592c71;fill-opacity:1;stroke:none;font-family:Liberation Mono;-inkscape-font-specification:Liberation Mono Bold"
       xml:space="preserve"><tspan
         y="366.67526"
         x="1335.0756"
         id="tspan4354"
         sodipodi:role="line">TEAM</tspan></text>
    <text
       xml:space="preserve"
       style="font-size:37.40604401px;font-style:normal;font-variant:normal;font-weight:bold;font-stretch:normal;text-align:start;line-height:125%;writing-mode:lr-tb;text-anchor:start;fill:#592c71;fill-opacity:1;stroke:none;font-family:Liberation Mono;-inkscape-font-specification:Liberation Mono Bold"
       x="1333.9432"
       y="322.22232"
       id="text4356"
       sodipodi:linespacing="125%"><tspan
         sodipodi:role="line"
         id="tspan4358"
         x="1333.9432"
         y="322.22232">220V</tspan></text>
    <rect
       style="fill:#eeeeec;fill-opacity:1;stroke:none"
       id="rect4427"
       width="705.01599"
       height="549.70813"
       x="20.435246"
       y="208.82178" />
    <rect
       style="fill:#eeeeec;fill-opacity:1;stroke:none"
       id="rect4485"
       width="303.91611"
       height="86.297157"
       x="401.96991"
       y="82.217606" />
    <g
       id="g4506"
       inkscape:export-filename="/home/lincoln/Work/mememe/mememe/media/imgs/warn.png"
       inkscape:export-xdpi="14.97"
       inkscape:export-ydpi="14.97">
      <path
         transform="matrix(0.82900585,0,0,0.82900585,64.185054,141.12502)"
         d="m 549.37387,912.32568 a 87.004913,87.004913 0 1 1 -174.00983,0 87.004913,87.004913 0 1 1 174.00983,0 z"
         sodipodi:ry="87.004913"
         sodipodi:rx="87.004913"
         sodipodi:cy="912.32568"
         sodipodi:cx="462.36896"
         id="path4504"
         style="fill:#592c71;fill-opacity:1;stroke:none"
         sodipodi:type="arc" />
      <path
         style="fill:#ffffff;fill-opacity:1"
         id="path4502"
         d="m 438.81842,940.41193 -5.9631,-0.51147 -0.063,-12.91587 7.5495,0.9408 6.766,0.31382 -1.8778,12.64698 -6.411,-0.47426 m 7.6811,-22.81486 -11.128,-1.08007 c 1.1674,-5.62687 0.1515,-48.82373 0.061,-53.43214 l -0.5731,-9.07435 c 3.1003,0.61095 2.6306,0.29007 15.712,1.66598 7.9603,0.83556 8.9993,1.19237 11.6189,1.2957 l -3.4192,10.76087 c -2.9174,8.60651 -11.3738,46.98896 -12.2716,49.86401 z" />
    </g>
    <rect
       style="fill:url(#linearGradient4542);fill-opacity:1;stroke:none"
       id="rect4510"
       width="0.96791565"
       height="55.549973"
       x="-259.8855"
       y="109.90636"
       inkscape:export-filename="/home/lincoln/Work/mememe/mememe/media/imgs/bg-footer.png"
       inkscape:export-xdpi="92.982315"
       inkscape:export-ydpi="92.982315"
       transform="scale(-1,1)" />
    <text
       xml:space="preserve"
       style="font-size:40px;font-style:normal;font-weight:normal;fill:#000000;fill-opacity:1;stroke:none;font-family:Bitstream Vera Sans"
       x="144.81384"
       y="888.05414"
       id="text2909"><tspan
         sodipodi:role="line"
         id="tspan2911"
         x="144.81384"
         y="888.05414"
         style="fill:#ffffff;fill-opacity:1">  </tspan></text>
    <g
       id="g3699"
       inkscape:export-filename="/home/lincoln/Work/mememe/mememe/media/imgs/noicon.png"
       inkscape:export-xdpi="45.220001"
       inkscape:export-ydpi="45.220001">
      <path
         sodipodi:type="arc"
         style="fill:#592c71;fill-opacity:1;stroke:none"
         id="path2903"
         sodipodi:cx="462.36896"
         sodipodi:cy="912.32568"
         sodipodi:rx="87.004913"
         sodipodi:ry="87.004913"
         d="m 549.37387,912.32568 a 87.004913,87.004913 0 1 1 -174.00983,0 87.004913,87.004913 0 1 1 174.00983,0 z"
         transform="matrix(0.82900585,0,0,0.82900585,-195.81495,141.12502)" />
      <text
         sodipodi:linespacing="125%"
         id="text3685"
         y="943.01178"
         x="148.01439"
         style="font-size:136.22473145px;font-style:normal;font-variant:normal;font-weight:bold;font-stretch:normal;text-align:start;line-height:125%;writing-mode:lr-tb;text-anchor:start;fill:#592c71;fill-opacity:1;stroke:none;font-family:Liberation Mono;-inkscape-font-specification:Liberation Mono Bold"
         xml:space="preserve"><tspan
           style="fill:#ffffff;fill-opacity:1"
           y="943.01178"
           x="148.01439"
           id="tspan3687"
           sodipodi:role="line">?</tspan></text>
    </g>
    <g
       style="font-size:66.98127747px;font-style:normal;font-variant:normal;font-weight:normal;font-stretch:normal;text-align:start;line-height:125%;writing-mode:lr-tb;text-anchor:start;fill:#592c71;fill-opacity:1;stroke:none;font-family:Prototype;-inkscape-font-specification:Prototype"
       id="text3880" />
    <g
       id="g4575"
       transform="translate(234,156)">
      <g
         inkscape:export-ydpi="45.222343"
         inkscape:export-xdpi="45.222343"
         inkscape:export-filename="/home/lincoln/Work/mememe/mememe/media/imgs/logo.png"
         id="g4415"
         transform="matrix(0.31434254,0,0,0.31434254,68.514659,-148.52178)">
        <path
           id="path4417"
           d="M 114.47631,69.206022 C 64.962997,69.616782 -15.586733,112.89967 14.288817,187.98727 c -3.00112,-0.34751 -5.9947703,-0.37175 -8.9062503,0 -18.3717097,2.34578 -26.1815797,18.82604 -23.7812497,37.625 1.52253,11.92419 23.5357097,19.65544 39.59375,26.75 9.25809,4.0903 12.40648,11.29535 19.125,10.4375 6.40777,-0.81817 9.61452,-4.34421 10.9375,-9.375 1.42747,3.3191 2.7817,6.78168 4.125,10.34375 10.13983,26.88806 13.00504,19.15194 80.531243,40.46875 48.22871,15.22494 45.43948,13.343 60.78125,-31.5625 7.4381,-21.77138 49.84885,-31.65419 29.125,-61.90625 C 267.41383,103.90403 177.66732,68.686102 114.47631,69.206022 z"
           style="fill:#592c71;fill-opacity:1;stroke:none" />
        <path
           style="fill:#ffffff;fill-opacity:0.97058835;stroke:none"
           d="m 184.88314,234.78002 c -2.50823,13.92653 -6.2354,19.81387 5.11614,19.86819 17.32023,0.0829 33.3536,-19.6896 35.86183,-33.61613 2.50823,-13.92654 -8.13338,-20.00659 -14.86176,-10.86388 -10.9953,14.94071 -23.95967,23.19657 -26.11621,24.61182 z"
           id="path4419"
           sodipodi:nodetypes="csssc" />
        <path
           style="fill:#592c71;fill-opacity:1;stroke:none"
           d="m 165.14976,260.69087 c -2.89718,-8.44448 -8.89628,-18.94783 -1.01467,-21.91241 2.8823,-1.08415 4.98134,1.92528 9.46848,2.86859 7.78288,1.63615 18.25034,2.95176 20.08803,8.3081 2.89717,8.44449 1.06903,16.86114 -6.81258,19.82573 -7.88162,2.96459 -18.83208,-0.64552 -21.72926,-9.09001 z"
           id="path4421"
           sodipodi:nodetypes="cssssc" />
        <path
           sodipodi:nodetypes="csssc"
           id="path4423"
           d="m 185.15508,234.65775 c 0,20.10015 -21.43838,36.39455 -47.88396,36.39455 -26.44558,0 -54.593793,-30.3323 -54.593793,-50.43245 0,-20.10016 38.301053,-42.6481 54.593793,-22.35666 14.39095,17.9229 30.09867,42.73768 47.88396,36.39456 z"
           style="fill:#ffffff;fill-opacity:0.97058835;stroke:none" />
        <path
           style="fill:#ffffff;fill-opacity:1"
           id="path4425"
           d="m 225.07933,159.86974 c -1.61539,0.15961 -8.34018,1.66618 -10.60045,2.15064 -2.42027,0.64406 -24.53245,17.72747 -25.98502,21.92235 -0.32203,1.45176 -0.48345,3.68542 -0.48345,5.78448 l -0.16202,3.39039 c 0,2.41907 0.67207,6.32054 0.9939,8.41798 1.45378,0.32404 11.97503,0.0411 13.91125,0.36274 l -0.2382,4.33916 c -1.89188,-0.13783 -15.25217,-0.10559 -22.88501,-0.10559 -3.87466,0 -16.33012,0.42722 -20.15701,0.31195 l 0.72346,-4.12636 c 2.09845,-0.16283 10.78686,0.37483 12.69688,-1.64119 0.94876,-1.00035 0.64648,-2.07245 0.64648,-7.88192 l 0,-2.74312 c 0,-1.29135 0,-3.71364 -0.32385,-5.9739 -0.80649,-2.42149 -20.28256,-26.73952 -25.28574,-30.61197 -1.45378,-0.48365 -10.55732,-1.39413 -12.81658,-1.87939 l -0.11245,-3.71727 c 1.12711,-0.56507 11.25015,0.13744 21.07394,-0.22611 6.45636,-0.2386 21.1876,0 23.00512,0.21643 l -0.46572,3.27594 c -1.93622,0.48486 -11.26406,0.66422 -13.68554,1.30908 6.29514,9.3611 16.24809,21.41291 19.47667,26.09385 1.77642,-2.5819 17.37944,-13.31655 17.86309,-17.02858 -2.42188,-0.48608 -10.43822,-1.63959 -11.72997,-1.63959 l -0.76679,-4.22631 c 2.19759,-0.3438 13.75285,0 19.49763,0 4.95784,0 15.55183,0 18.56217,0.24666 l -2.75279,3.97965" />
      </g>
      <path
         id="path4557"
         style="font-size:66.98127747px;font-style:normal;font-variant:normal;font-weight:normal;font-stretch:normal;text-align:start;line-height:125%;writing-mode:lr-tb;text-anchor:start;fill:#592c71;fill-opacity:1;stroke:none;font-family:Prototype;-inkscape-font-specification:Prototype"
         d="m -218.35998,-69.579931 c -1e-5,0.446542 0.22326,0.669813 0.66981,0.669813 l 6.83209,0 c 0.44653,0 0.6698,-0.223271 0.66981,-0.669813 l 0,-24.783073 c -1e-5,-0.535824 0.15628,-1.004692 0.46887,-1.406606 0.35722,-0.401861 0.78144,-0.602804 1.27265,-0.602832 l 6.16227,0 c 1.02703,2.8e-5 1.96477,0.379588 2.81322,1.138682 0.89306,0.714492 1.3396,1.518267 1.33962,2.411326 l 0,23.242503 c -2e-5,0.446542 0.22325,0.669813 0.66981,0.669813 l 6.83209,0 c 0.44652,0 0.66979,-0.223271 0.66982,-0.669813 l 0,-23.242503 c -3e-5,-1.160984 0.37953,-2.03174 1.13868,-2.61227 0.80374,-0.625131 1.60752,-0.93771 2.41133,-0.937738 l 4.42076,0 c 0.49116,2.8e-5 1.00468,0.111663 1.54057,0.334907 0.58046,0.178643 1.09398,0.468895 1.54057,0.870756 0.49115,0.401914 0.89304,0.893109 1.20566,1.473588 0.31254,0.535875 0.46883,1.161033 0.46887,1.875476 l 0,22.237784 c -4e-5,0.446542 0.24555,0.669813 0.73679,0.669813 l 6.76511,0 c 0.44649,0 0.66976,-0.223271 0.66982,-0.669813 l 0,-23.108541 c -6e-5,-1.250292 -0.31263,-2.522935 -0.93774,-3.817932 -0.58056,-1.339597 -1.42899,-2.545259 -2.54529,-3.616986 -1.07175,-1.07167 -2.36672,-1.94243 -3.88491,-2.61227 -1.51829,-0.71444 -3.19282,-1.07167 -5.0236,-1.0717 l -4.75567,0 c -0.26796,3e-5 -0.87079,0.0447 -1.8085,0.13396 -0.89311,0.0447 -1.78619,0.31261 -2.67925,0.80377 -0.49122,0.22331 -0.91544,0.49123 -1.27264,0.80378 -0.31261,0.31261 -0.58053,0.60286 -0.80378,0.87076 -0.2233,0.26795 -0.42424,0.49122 -0.60283,0.66981 -0.13399,0.13399 -0.24562,0.20097 -0.3349,0.20094 -0.0893,3e-5 -0.29028,-0.13393 -0.60284,-0.40188 -0.26795,-0.31255 -0.51354,-0.58048 -0.73679,-0.80378 -0.44657,-0.44651 -1.16103,-0.9377 -2.1434,-1.47359 -0.98242,-0.53581 -2.05411,-0.80374 -3.2151,-0.80377 l -13.86513,0 c -0.98239,3e-5 -1.92013,0.40192 -2.81321,1.20566 -0.84843,0.75915 -1.27265,1.69689 -1.27264,2.813213 l 0,30.208556" />
      <path
         id="path4559"
         style="font-size:66.98127747px;font-style:normal;font-variant:normal;font-weight:normal;font-stretch:normal;text-align:start;line-height:125%;writing-mode:lr-tb;text-anchor:start;fill:#592c71;fill-opacity:1;stroke:none;font-family:Prototype;-inkscape-font-specification:Prototype"
         d="m -156.46865,-82.440336 24.78308,0 c 0.4465,1.3e-5 0.66977,-0.223257 0.66981,-0.669813 l 0,-6.966053 c -4e-5,-2.098723 -0.31261,-3.996524 -0.93774,-5.693408 -0.58054,-1.696831 -1.51827,-3.125763 -2.81321,-4.2868 -1.295,-1.20563 -2.94721,-2.12104 -4.95662,-2.74623 -2.00946,-0.66978 -4.39846,-1.00469 -7.16699,-1.00472 -2.23273,3e-5 -4.46544,0.29028 -6.69813,0.87075 -2.18807,0.53589 -4.17518,1.49595 -5.96133,2.8802 -1.74152,1.384307 -3.17046,3.259781 -4.28681,5.626425 -1.0717,2.322041 -1.60755,5.269214 -1.60755,8.841529 0,2.94719 0.31258,5.470149 0.93774,7.568884 0.66981,2.098754 1.76384,3.840265 3.28208,5.22454 1.56289,1.339628 3.59466,2.322019 6.0953,2.947176 2.54527,0.625159 5.69339,0.937738 9.44436,0.937738 l 11.31984,0 c 0.4465,0 0.66978,-0.223271 0.66981,-0.669813 l 0,-6.83209 c -3e-5,-0.446534 -0.22331,-0.669805 -0.66981,-0.669813 l -15.94155,0 c -0.93775,8e-6 -1.83083,-0.111627 -2.67925,-0.334906 -0.84844,-0.267917 -1.58524,-0.602823 -2.21038,-1.00472 -0.58052,-0.446531 -1.04939,-0.937727 -1.40661,-1.473588 -0.35724,-0.580492 -0.53586,-1.20565 -0.53585,-1.875475 -1e-5,-0.446529 0.22326,-0.6698 0.66981,-0.669813 m 0,-7.83681 c -0.44655,2.2e-5 -0.66982,-0.223249 -0.66981,-0.669812 -1e-5,-0.848407 0.3349,-1.607527 1.00472,-2.277364 0.6698,-0.714442 1.4959,-1.294946 2.47831,-1.741513 1.02703,-0.49117 2.0764,-0.87073 3.14812,-1.138682 1.11634,-0.267897 2.12105,-0.40186 3.01416,-0.401887 2.81319,2.7e-5 5.00124,0.51355 6.56416,1.540569 1.56287,0.982417 2.34432,2.322041 2.34435,4.018877 -3e-5,0.446563 -0.2233,0.669834 -0.66982,0.669812 l -17.21419,0" />
      <path
         id="path4561"
         style="font-size:66.98127747px;font-style:normal;font-variant:normal;font-weight:normal;font-stretch:normal;text-align:start;line-height:125%;writing-mode:lr-tb;text-anchor:start;fill:#592c71;fill-opacity:1;stroke:none;font-family:Prototype;-inkscape-font-specification:Prototype"
         d="m -126.05836,-69.579931 c -1e-5,0.446542 0.22326,0.669813 0.66981,0.669813 l 6.83209,0 c 0.44653,0 0.6698,-0.223271 0.66981,-0.669813 l 0,-24.783073 c -1e-5,-0.535824 0.15628,-1.004692 0.46887,-1.406606 0.35722,-0.401861 0.78144,-0.602804 1.27265,-0.602832 l 6.16227,0 c 1.02703,2.8e-5 1.96477,0.379588 2.81322,1.138682 0.89306,0.714492 1.3396,1.518267 1.33962,2.411326 l 0,23.242503 c -2e-5,0.446542 0.22325,0.669813 0.66981,0.669813 l 6.832095,0 c 0.446511,0 0.669782,-0.223271 0.669813,-0.669813 l 0,-23.242503 c -3.1e-5,-1.160984 0.379529,-2.03174 1.138682,-2.61227 0.803742,-0.625131 1.607517,-0.93771 2.411326,-0.937738 l 4.420764,0 c 0.491157,2.8e-5 1.004679,0.111663 1.540569,0.334907 0.580464,0.178643 1.093986,0.468895 1.54057,0.870756 0.491153,0.401914 0.89304,0.893109 1.205663,1.473588 0.312535,0.535875 0.468825,1.161033 0.468869,1.875476 l 0,22.237784 c -4.4e-5,0.446542 0.245554,0.669813 0.736794,0.669813 l 6.765109,0 c 0.44649,0 0.669761,-0.223271 0.669813,-0.669813 l 0,-23.108541 c -5.2e-5,-1.250292 -0.312631,-2.522935 -0.937738,-3.817932 -0.580555,-1.339597 -1.428984,-2.545259 -2.545289,-3.616986 -1.071748,-1.07167 -2.366718,-1.94243 -3.884914,-2.61227 -1.518285,-0.71444 -3.192816,-1.07167 -5.023596,-1.0717 l -4.75567,0 c -0.26796,3e-5 -0.870791,0.0447 -1.808495,0.13396 -0.893116,0.0447 -1.786199,0.31261 -2.679251,0.80377 -0.491226,0.22331 -0.91544,0.49123 -1.272644,0.80378 -0.312608,0.31261 -0.58053,0.60286 -0.80378,0.87076 -0.22329,0.26795 -0.42424,0.49122 -0.60283,0.66981 -0.13399,0.13399 -0.24562,0.20097 -0.3349,0.20094 -0.0893,3e-5 -0.29028,-0.13393 -0.60283,-0.40188 -0.26796,-0.31255 -0.51355,-0.58048 -0.7368,-0.80378 -0.44657,-0.44651 -1.16103,-0.9377 -2.1434,-1.47359 -0.98241,-0.53581 -2.05411,-0.80374 -3.2151,-0.80377 l -13.86513,0 c -0.98239,3e-5 -1.92013,0.40192 -2.81321,1.20566 -0.84843,0.75915 -1.27265,1.69689 -1.27264,2.813213 l 0,30.208556" />
      <path
         id="path4563"
         style="font-size:66.98127747px;font-style:normal;font-variant:normal;font-weight:normal;font-stretch:normal;text-align:start;line-height:125%;writing-mode:lr-tb;text-anchor:start;fill:#592c71;fill-opacity:1;stroke:none;font-family:Prototype;-inkscape-font-specification:Prototype"
         d="m -64.167022,-82.440336 24.783073,0 c 0.446507,1.3e-5 0.669777,-0.223257 0.669813,-0.669813 l 0,-6.966053 c -3.6e-5,-2.098723 -0.312615,-3.996524 -0.937738,-5.693408 -0.580538,-1.696831 -1.518275,-3.125763 -2.813214,-4.2868 -1.295002,-1.20563 -2.947205,-2.12104 -4.956614,-2.74623 -2.009463,-0.66978 -4.39846,-1.00469 -7.166997,-1.00472 -2.232727,3e-5 -4.465434,0.29028 -6.698128,0.87075 -2.188066,0.53589 -4.175175,1.49595 -5.961333,2.8802 -1.741519,1.384307 -3.170451,3.259781 -4.286802,5.626425 -1.071702,2.322041 -1.607552,5.269214 -1.607551,8.841529 -1e-6,2.94719 0.312578,5.470149 0.937738,7.568884 0.66981,2.098754 1.763837,3.840265 3.282083,5.22454 1.562889,1.339628 3.594653,2.322019 6.095296,2.947176 2.545275,0.625159 5.693391,0.937738 9.44436,0.937738 l 11.319836,0 c 0.446509,0 0.66978,-0.223271 0.669813,-0.669813 l 0,-6.83209 c -3.3e-5,-0.446534 -0.223304,-0.669805 -0.669813,-0.669813 l -15.941544,0 c -0.937753,8e-6 -1.830836,-0.111627 -2.679251,-0.334906 -0.848442,-0.267917 -1.585236,-0.602823 -2.210382,-1.00472 -0.580516,-0.446531 -1.049384,-0.937727 -1.406607,-1.473588 -0.357243,-0.580492 -0.53586,-1.20565 -0.53585,-1.875475 -1e-5,-0.446529 0.223261,-0.6698 0.669812,-0.669813 m 0,-7.83681 c -0.446551,2.2e-5 -0.669822,-0.223249 -0.669812,-0.669812 -1e-5,-0.848407 0.334896,-1.607527 1.004719,-2.277364 0.669801,-0.714442 1.495903,-1.294946 2.478307,-1.741513 1.027032,-0.49117 2.076405,-0.87073 3.14812,-1.138682 1.116338,-0.267897 2.121056,-0.40186 3.014157,-0.401887 2.813192,2.7e-5 5.001245,0.51355 6.564166,1.540569 1.562869,0.982417 2.344317,2.322041 2.344344,4.018877 -2.7e-5,0.446563 -0.223298,0.669834 -0.669812,0.669812 l -17.214189,0" />
      <path
         id="path4565"
         style="font-size:66.98127747px;font-style:normal;font-variant:normal;font-weight:normal;font-stretch:normal;text-align:start;line-height:125%;writing-mode:lr-tb;text-anchor:start;fill:#592c71;fill-opacity:1;stroke:none;font-family:Prototype;-inkscape-font-specification:Prototype"
         d="m -33.756743,-69.579931 c -3e-6,0.446542 0.223268,0.669813 0.669813,0.669813 l 6.83209,0 c 0.446531,0 0.669802,-0.223271 0.669813,-0.669813 l 0,-24.783073 c -1.1e-5,-0.535824 0.156278,-1.004692 0.468869,-1.406606 0.357221,-0.401861 0.781436,-0.602804 1.272644,-0.602832 l 6.162278,0 c 1.027026,2.8e-5 1.964763,0.379588 2.813213,1.138682 0.893061,0.714492 1.339603,1.518267 1.339626,2.411326 l 0,23.242503 c -2.3e-5,0.446542 0.223247,0.669813 0.669812,0.669813 l 6.8320908,0 c 0.4465109,0 0.6697816,-0.223271 0.6698128,-0.669813 l 0,-23.242503 c -3.12e-5,-1.160984 0.379529,-2.03174 1.1386817,-2.61227 0.8037422,-0.625131 1.6075167,-0.93771 2.411326,-0.937738 l 4.4207643,0 c 0.4911564,2.8e-5 1.004679,0.111663 1.5405694,0.334907 0.5804631,0.178643 1.0939857,0.468895 1.5405693,0.870756 0.4911534,0.401914 0.8930406,0.893109 1.205663,1.473588 0.3125356,0.535875 0.4688251,1.161033 0.468869,1.875476 l 0,22.237784 c -4.39e-5,0.446542 0.2455539,0.669813 0.736794,0.669813 l 6.7651087,0 c 0.44649,0 0.669761,-0.223271 0.669813,-0.669813 l 0,-23.108541 c -5.2e-5,-1.250292 -0.312631,-2.522935 -0.937738,-3.817932 -0.580555,-1.339597 -1.428983,-2.545259 -2.545288,-3.616986 -1.071748,-1.07167 -2.3667183,-1.94243 -3.8849144,-2.61227 -1.5182854,-0.71444 -3.1928157,-1.07167 -5.0235958,-1.0717 l -4.7556707,0 c -0.2679597,3e-5 -0.8707906,0.0447 -1.8084945,0.13396 -0.8931159,0.0447 -1.7861987,0.31261 -2.6792511,0.80377 -0.4912259,0.22331 -0.9154403,0.49123 -1.2726443,0.80378 -0.3126081,0.31261 -0.5805329,0.60286 -0.8037753,0.87076 -0.223299,0.26795 -0.4242427,0.49122 -0.6028315,0.66981 -0.1339901,0.13399 -0.2456255,0.20097 -0.3349064,0.20094 -0.089336,3e-5 -0.2902793,-0.13393 -0.6028315,-0.40188 -0.2679516,-0.31255 -0.5135495,-0.58048 -0.7367945,-0.80378 -0.446567,-0.44651 -1.161033,-0.9377 -2.1434,-1.47359 -0.982415,-0.53581 -2.054115,-0.80374 -3.215102,-0.80377 l -13.865124,0 c -0.982398,3e-5 -1.920135,0.40192 -2.813214,1.20566 -0.848433,0.75915 -1.272647,1.69689 -1.272644,2.813213 l 0,30.208556" />
      <path
         id="path4567"
         style="font-size:66.98127747px;font-style:normal;font-variant:normal;font-weight:normal;font-stretch:normal;text-align:start;line-height:125%;writing-mode:lr-tb;text-anchor:start;fill:#592c71;fill-opacity:1;stroke:none;font-family:Prototype;-inkscape-font-specification:Prototype"
         d="m 28.134599,-82.440336 24.783072,0 c 0.446507,1.3e-5 0.669778,-0.223257 0.669813,-0.669813 l 0,-6.966053 c -3.5e-5,-2.098723 -0.312614,-3.996524 -0.937738,-5.693408 -0.580538,-1.696831 -1.518275,-3.125763 -2.813213,-4.2868 -1.295002,-1.20563 -2.947205,-2.12104 -4.956615,-2.74623 -2.009463,-0.66978 -4.398459,-1.00469 -7.166997,-1.00472 -2.232726,3e-5 -4.465433,0.29028 -6.698127,0.87075 -2.188066,0.53589 -4.175175,1.49595 -5.961334,2.8802 -1.741518,1.384307 -3.170451,3.259781 -4.286802,5.626425 -1.071702,2.322041 -1.607551,5.269214 -1.60755,8.841529 -1e-6,2.94719 0.312578,5.470149 0.937737,7.568884 0.669811,2.098754 1.763837,3.840265 3.282083,5.22454 1.56289,1.339628 3.594653,2.322019 6.095296,2.947176 2.545275,0.625159 5.693392,0.937738 9.44436,0.937738 l 11.319836,0 c 0.44651,0 0.66978,-0.223271 0.669813,-0.669813 l 0,-6.83209 c -3.3e-5,-0.446534 -0.223303,-0.669805 -0.669813,-0.669813 l -15.941544,0 c -0.937753,8e-6 -1.830836,-0.111627 -2.679251,-0.334906 -0.848442,-0.267917 -1.585235,-0.602823 -2.210382,-1.00472 -0.580515,-0.446531 -1.049384,-0.937727 -1.406607,-1.473588 -0.357243,-0.580492 -0.535859,-1.20565 -0.53585,-1.875475 -9e-6,-0.446529 0.223261,-0.6698 0.669813,-0.669813 m 0,-7.83681 c -0.446552,2.2e-5 -0.669822,-0.223249 -0.669813,-0.669812 -9e-6,-0.848407 0.334897,-1.607527 1.004719,-2.277364 0.669802,-0.714442 1.495904,-1.294946 2.478307,-1.741513 1.027033,-0.49117 2.076405,-0.87073 3.14812,-1.138682 1.116338,-0.267897 2.121056,-0.40186 3.014158,-0.401887 2.813192,2.7e-5 5.001245,0.51355 6.564165,1.540569 1.56287,0.982417 2.344317,2.322041 2.344345,4.018877 -2.8e-5,0.446563 -0.223299,0.669834 -0.669813,0.669812 l -17.214188,0" />
      <g
         transform="matrix(0.86668649,0,0,0.86668649,-197.18495,20.073396)"
         id="g4400">
        <path
           id="rect3888"
           d="m -13,-81.637817 356,0 c 6.094,0 11,4.906 11,11 l 0,19.917808 c 0,6.094 -4.906,11 -11,11 l -356,0 c -6.094,0 -11,-4.906 -11,-11 l 0,-19.917808 c 0,-6.094 4.906,-11 11,-11 z"
           style="fill:#592c71;fill-opacity:1" />
        <g
           id="text3884"
           style="font-size:27.82328415px;font-style:normal;font-variant:normal;font-weight:normal;font-stretch:normal;text-align:start;line-height:125%;writing-mode:lr-tb;text-anchor:start;fill:#ffffff;fill-opacity:1;stroke:none;font-family:Prototype;-inkscape-font-specification:Prototype">
          <path
             id="path4512"
             d="m 9.8236408,-73.213301 -1.5859272,13.939465 c -0.1298597,1.094388 -0.2504272,1.641578 -0.3617027,1.641574 -0.1113105,4e-6 -0.2226035,-0.463717 -0.3338794,-1.391164 L 5.9005577,-71.710844 c -0.055662,-0.33386 -0.3524434,-0.741935 -0.8903451,-1.224224 -0.3895402,-0.259664 -0.8347123,-0.435878 -1.3355176,-0.528642 l -1.363341,0 c -0.5935747,1.9e-5 -1.0109235,0.03712 -1.2520477,0.111293 -0.85325722,0.278252 -1.46536886,0.769796 -1.83633679,1.474634 l -1.36334091,13.104767 c -0.1113005,0.834703 -0.2040447,1.252051 -0.2782329,1.252047 -0.092751,4e-6 -0.2133188,-0.510089 -0.3617026,-1.53028 L -4.644467,-73.213301 c -4.9e-6,-0.16692 -0.083475,-0.25039 -0.2504095,-0.250409 l -3.617027,0 c -0.1298429,0.05567 -0.1947639,0.157685 -0.194763,0.306056 l 2.5040956,17.473022 c 0.1112896,0.797602 0.6028338,1.418988 1.4746341,1.86416 0.7233998,0.185489 1.4653533,0.278233 2.2258627,0.278233 0.7604952,0 1.50244874,-0.09274 2.22586272,-0.278233 0.70484651,-0.111293 1.16856745,-0.621386 1.39116418,-1.53028 l 1.5024574,-12.325715 c 0.055634,0.03711 0.204025,1.112944 0.4451725,3.227501 0.2411223,2.096029 0.5842757,5.193685 1.0294615,9.292976 0.3153166,0.66776 0.834684,1.140756 1.5581039,1.418988 0.7419383,0.16694 1.4838918,0.25041 2.2258628,0.25041 0.4080569,0 0.7975825,-0.01855 1.1685779,-0.05565 0.389507,-0.05565 0.7790325,-0.139116 1.1685782,-0.25041 0.686287,-0.333878 1.085087,-0.871795 1.196401,-1.61375 l 2.476272,-17.834725 c -0.01857,-0.148371 -0.111316,-0.222567 -0.278233,-0.222586 l -3.366617,0 c -0.2782524,1.9e-5 -0.4173687,0.08349 -0.4173492,0.250409" />
          <path
             id="path4514"
             d="m 25.321605,-62.306574 0,8.513925 c -1.1e-5,0.185489 0.09273,0.278233 0.278233,0.278233 l 2.837975,0 c 0.185474,0 0.278218,-0.09274 0.278232,-0.278233 l 0,-10.099852 c -1.4e-5,-0.556454 -0.129855,-1.085096 -0.389526,-1.585927 -0.259697,-0.500807 -0.60285,-0.936704 -1.029461,-1.307694 -0.408087,-0.389513 -0.890357,-0.686294 -1.446811,-0.890345 -0.537927,-0.222572 -1.094392,-0.333865 -1.669397,-0.33388 l -4.841251,0 0,-5.175131 c -5e-6,-0.185468 -0.09275,-0.278213 -0.278233,-0.278232 l -2.837975,0 c -0.18549,1.9e-5 -0.278234,0.09276 -0.278233,0.278232 l 0,16.499208 0,0.05565 0,2.837975 c -10e-7,0.185489 0.09274,0.278233 0.278233,0.278233 l 2.837975,0 c 0.185484,0 0.278228,-0.09274 0.278233,-0.278233 l 0,-9.599033 c -5e-6,-0.259673 0.08347,-0.472985 0.250409,-0.639935 0.166935,-0.166929 0.370972,-0.287497 0.612112,-0.361703 0.259679,-0.09273 0.547186,-0.14838 0.862522,-0.16694 0.315324,-0.03709 0.630654,-0.05563 0.945992,-0.05565 0.927435,1.1e-5 1.706486,0.185499 2.337156,0.556466 0.6492,0.352438 0.973804,0.936726 0.973815,1.752866" />
          <path
             id="path4516"
             d="m 31.248129,-67.732114 0,2.837975 c -2e-6,0.1855 0.09274,0.278244 0.278232,0.278233 l 7.317524,0 c 0.296772,1.1e-5 0.537907,0.129853 0.723406,0.389526 0.185478,0.259694 0.278222,0.519378 0.278232,0.779052 -1e-5,0.31534 -0.148401,0.593573 -0.445172,0.834698 -0.278243,0.222595 -0.658494,0.333889 -1.140755,0.33388 l -4.646488,0 c -0.556469,9e-6 -1.029465,0.157674 -1.418988,0.472996 -0.389528,0.315338 -0.704858,0.704864 -0.945991,1.168578 -0.241137,0.445179 -0.417351,0.936723 -0.528643,1.474634 -0.111294,0.537922 -0.16694,1.029466 -0.16694,1.474634 0,0.241139 0.0371,0.593567 0.111294,1.057284 0.07419,0.463724 0.204036,0.927445 0.389526,1.391165 0.204035,0.463722 0.482268,0.871797 0.834698,1.224224 0.352426,0.33388 0.806872,0.500819 1.363341,0.500819 l 9.710326,0 c 0.185475,0 0.278219,-0.09274 0.278233,-0.278233 l 0,-9.181683 c -1.4e-5,-0.593554 -0.07421,-1.187116 -0.222586,-1.780691 -0.129856,-0.593551 -0.352442,-1.131467 -0.667759,-1.61375 -0.296794,-0.482257 -0.695594,-0.871783 -1.196401,-1.168578 -0.482282,-0.315316 -1.075844,-0.472981 -1.78069,-0.472996 l -7.846167,0 c -0.18549,1.5e-5 -0.278234,0.09276 -0.278232,0.278233 m 3.533557,10.962374 c -0.333885,3e-6 -0.593568,-0.120564 -0.779052,-0.361703 -0.185493,-0.241131 -0.278237,-0.519364 -0.278233,-0.834698 -4e-6,-0.259679 0.08346,-0.49154 0.250409,-0.695582 0.166936,-0.222581 0.380247,-0.333874 0.639936,-0.33388 l 4.952545,0 c 0.185478,6e-6 0.278222,0.09275 0.278232,0.278233 l 0,1.669397 c -1e-5,0.185492 -0.09275,0.278236 -0.278232,0.278233 l -4.785605,0" />
          <path
             id="path4518"
             d="m 50.195752,-64.337673 c -6e-6,-0.185478 0.09274,-0.278222 0.278233,-0.278233 l 2.281509,0 c 0.18548,1.1e-5 0.278224,-0.09273 0.278233,-0.278233 l 0,-2.837975 c -9e-6,-0.185474 -0.09275,-0.278218 -0.278233,-0.278233 l -2.281509,0 c -0.185495,1.5e-5 -0.278239,-0.09273 -0.278233,-0.278233 l 0,-3.47791 c -6e-6,-0.18547 -0.09275,-0.278214 -0.278233,-0.278233 l -2.837975,0 c -0.185491,1.9e-5 -0.278235,0.09276 -0.278233,0.278233 l 0,3.47791 c -2e-6,0.185504 -0.09275,0.278248 -0.278233,0.278233 l -1.474634,0 c -0.185489,1.5e-5 -0.278233,0.09276 -0.278233,0.278233 l 0,2.837975 c 0,0.1855 0.09274,0.278244 0.278233,0.278233 l 1.474634,0 c 0.185487,1.1e-5 0.278231,0.09275 0.278233,0.278233 l 0,8.680864 c -2e-6,0.575016 0.231858,1.075835 0.695582,1.502458 0.463718,0.426624 1.048006,0.639935 1.752867,0.639935 l 3.505734,0 c 0.18548,0 0.278224,-0.09274 0.278233,-0.278233 l 0,-2.837975 c -9e-6,-0.166936 -0.0742,-0.25968 -0.222586,-0.278232 l -2.337156,0 c -0.185495,3e-6 -0.278239,-0.09274 -0.278233,-0.278233 l 0,-7.150584" />
          <path
             id="path4520"
             d="m 62.744114,-53.792649 c -1e-6,0.185489 0.09274,0.278233 0.278233,0.278233 l 2.837975,0 c 0.185484,0 0.278228,-0.09274 0.278233,-0.278233 l 0,-13.939465 c -5e-6,-0.185474 -0.09275,-0.278218 -0.278233,-0.278233 l -2.837975,0 c -0.18549,1.5e-5 -0.278234,0.09276 -0.278233,0.278233 l 0,13.939465 m 0,-19.392829 0,2.837975 c -1e-6,0.185506 0.09274,0.27825 0.278233,0.278233 l 2.837975,0 c 0.185484,1.7e-5 0.278228,-0.09273 0.278233,-0.278233 l 0,-2.837975 c -5e-6,-0.185468 -0.09275,-0.278213 -0.278233,-0.278232 l -2.837975,0 c -0.18549,1.9e-5 -0.278234,0.09276 -0.278233,0.278232" />
          <path
             id="path4522"
             d="m 68.364236,-56.630624 0,2.837975 c -1e-6,0.185489 0.09274,0.278233 0.278232,0.278233 l 9.098214,0 c 0.63065,0 1.140743,-0.157665 1.530281,-0.472996 0.408062,-0.315329 0.723393,-0.686306 0.945992,-1.112931 0.222573,-0.44517 0.370963,-0.890343 0.445172,-1.335518 0.09273,-0.463718 0.139103,-0.834694 0.139117,-1.112931 -1.4e-5,-0.964535 -0.08348,-1.762135 -0.25041,-2.392802 -0.148404,-0.649203 -0.389539,-1.159296 -0.723405,-1.530281 -0.315343,-0.370969 -0.732692,-0.630653 -1.252048,-0.779052 -0.519379,-0.166931 -1.140765,-0.250401 -1.86416,-0.25041 l -4.0622,0 c -0.278238,9e-6 -0.491549,-0.120558 -0.639935,-0.361702 -0.129847,-0.241126 -0.194768,-0.482261 -0.194763,-0.723406 -5e-6,-0.259673 0.06492,-0.491534 0.194763,-0.695582 0.129837,-0.222575 0.343149,-0.333868 0.639935,-0.333879 l 7.289701,0 c 0.185476,1.1e-5 0.27822,-0.09273 0.278233,-0.278233 l 0,-2.837975 c -1.3e-5,-0.185474 -0.09276,-0.278218 -0.278233,-0.278233 l -6.00983,0 c -0.945997,1.5e-5 -1.762146,0.05566 -2.448449,0.16694 -0.667762,0.111307 -1.224227,0.324619 -1.669397,0.639935 -0.426625,0.315344 -0.75123,0.760516 -0.973815,1.335518 -0.204038,0.575026 -0.306057,1.326254 -0.306056,2.253686 -1e-6,0.630671 0.06492,1.214959 0.194763,1.752867 0.129841,0.519376 0.333878,0.973822 0.612112,1.363341 0.278231,0.370984 0.649208,0.667765 1.112932,0.890345 0.463718,0.204043 1.029457,0.306062 1.69722,0.306056 l 4.368256,0 c 0.370967,6e-6 0.612102,0.120573 0.723405,0.361703 0.129832,0.24114 0.194753,0.482275 0.194763,0.723405 -10e-6,0.129847 -0.0093,0.278238 -0.02782,0.445173 -0.01856,0.148395 -0.07421,0.287511 -0.16694,0.417349 -0.07421,0.129846 -0.185498,0.241139 -0.333879,0.333879 -0.148401,0.0742 -0.352438,0.111297 -0.612112,0.111294 l -7.651404,0 c -0.185489,3e-6 -0.278233,0.09275 -0.278232,0.278232" />
          <path
             id="path4524"
             d="m 100.16631,-62.306574 0,8.513925 c -10e-6,0.185489 0.0927,0.278233 0.27823,0.278233 l 2.83797,0 c 0.18548,0 0.27822,-0.09274 0.27824,-0.278233 l 0,-10.099852 c -2e-5,-0.556454 -0.12986,-1.085096 -0.38953,-1.585927 -0.2597,-0.500807 -0.60285,-0.936704 -1.02946,-1.307694 -0.40809,-0.389513 -0.89036,-0.686294 -1.44681,-0.890345 -0.53793,-0.222572 -1.094394,-0.333865 -1.669398,-0.33388 l -4.841252,0 0,-5.175131 c -4e-6,-0.185468 -0.09275,-0.278213 -0.278232,-0.278232 l -2.837975,0 c -0.18549,1.9e-5 -0.278234,0.09276 -0.278233,0.278232 l 0,16.499208 0,0.05565 0,2.837975 c -10e-7,0.185489 0.09274,0.278233 0.278233,0.278233 l 2.837975,0 c 0.185484,0 0.278228,-0.09274 0.278232,-0.278233 l 0,-9.599033 c -4e-6,-0.259673 0.08347,-0.472985 0.25041,-0.639935 0.166935,-0.166929 0.370972,-0.287497 0.612112,-0.361703 0.259679,-0.09273 0.547186,-0.14838 0.862522,-0.16694 0.315324,-0.03709 0.630654,-0.05563 0.945992,-0.05565 0.927434,1.1e-5 1.706486,0.185499 2.337156,0.556466 0.649199,0.352438 0.973808,0.936726 0.973818,1.752866" />
          <path
             id="path4526"
             d="m 106.09283,-67.732114 0,2.837975 c 0,0.1855 0.0927,0.278244 0.27824,0.278233 l 7.31752,0 c 0.29677,1.1e-5 0.53791,0.129853 0.7234,0.389526 0.18548,0.259694 0.27823,0.519378 0.27824,0.779052 -1e-5,0.31534 -0.1484,0.593573 -0.44518,0.834698 -0.27824,0.222595 -0.65849,0.333889 -1.14075,0.33388 l -4.64649,0 c -0.55647,9e-6 -1.02946,0.157674 -1.41899,0.472996 -0.38952,0.315338 -0.70485,0.704864 -0.94599,1.168578 -0.24113,0.445179 -0.41735,0.936723 -0.52864,1.474634 -0.11129,0.537922 -0.16694,1.029466 -0.16694,1.474634 0,0.241139 0.0371,0.593567 0.11129,1.057284 0.0742,0.463724 0.20404,0.927445 0.38953,1.391165 0.20404,0.463722 0.48227,0.871797 0.8347,1.224224 0.35242,0.33388 0.80687,0.500819 1.36334,0.500819 l 9.71032,0 c 0.18548,0 0.27822,-0.09274 0.27824,-0.278233 l 0,-9.181683 c -2e-5,-0.593554 -0.0742,-1.187116 -0.22259,-1.780691 -0.12985,-0.593551 -0.35244,-1.131467 -0.66776,-1.61375 -0.29679,-0.482257 -0.69559,-0.871783 -1.1964,-1.168578 -0.48228,-0.315316 -1.07584,-0.472981 -1.78069,-0.472996 l -7.84616,0 c -0.1855,1.5e-5 -0.27824,0.09276 -0.27824,0.278233 m 3.53356,10.962374 c -0.33388,3e-6 -0.59357,-0.120564 -0.77905,-0.361703 -0.1855,-0.241131 -0.27824,-0.519364 -0.27824,-0.834698 0,-0.259679 0.0835,-0.49154 0.25041,-0.695582 0.16694,-0.222581 0.38025,-0.333874 0.63994,-0.33388 l 4.95254,0 c 0.18548,6e-6 0.27823,0.09275 0.27824,0.278233 l 0,1.669397 c -1e-5,0.185492 -0.0928,0.278236 -0.27824,0.278233 l -4.7856,0" />
          <path
             id="path4528"
             d="m 123.2702,-53.236183 c 0,-0.185489 0.0927,-0.278233 0.27823,-0.278233 l 2.92145,0 c 0.92743,0 1.7714,-0.14839 2.53192,-0.445172 0.77904,-0.296781 1.43752,-0.751228 1.97545,-1.363341 0.55645,-0.61211 0.98308,-1.391161 1.27987,-2.337156 0.31532,-0.945987 0.47298,-2.077466 0.473,-3.394441 -2e-5,-0.890336 -0.0928,-1.752857 -0.27824,-2.587565 -0.1855,-0.834688 -0.50083,-1.576641 -0.94599,-2.225863 -0.42663,-0.649197 -1.01092,-1.168564 -1.75287,-1.558104 -0.72341,-0.389511 -1.6323,-0.584274 -2.72668,-0.584289 l -6.87235,0 c -0.18549,1.5e-5 -0.27823,0.09276 -0.27823,0.278233 l 0,19.170243 c 0,0.185483 0.0927,0.278227 0.27823,0.278233 l 2.83798,0 c 0.18548,-6e-6 0.27823,-0.09275 0.27823,-0.278233 l 0,-4.674312 m 0,-11.10149 c 0,-0.185478 0.0927,-0.278222 0.27823,-0.278233 l 3.67268,0 c 0.27822,1.1e-5 0.54718,0.09275 0.80687,0.278233 0.27822,0.16695 0.51936,0.380262 0.72341,0.639935 0.22257,0.259694 0.39879,0.556476 0.52864,0.890345 0.14838,0.333889 0.22257,0.649219 0.22259,0.945992 l 0,2.142393 c -2e-5,0.315336 -0.0742,0.639941 -0.22259,0.973815 -0.12985,0.333884 -0.30607,0.63994 -0.52864,0.918168 -0.20405,0.259688 -0.44519,0.482274 -0.72341,0.667759 -0.25969,0.166943 -0.52865,0.250413 -0.80687,0.25041 l -3.67268,0 c -0.18549,3e-6 -0.27823,-0.09274 -0.27823,-0.278233 l 0,-7.150584" />
          <path
             id="path4530"
             d="m 137.65478,-53.236183 c 0,-0.185489 0.0927,-0.278233 0.27824,-0.278233 l 2.92144,0 c 0.92743,0 1.77141,-0.14839 2.53192,-0.445172 0.77904,-0.296781 1.43752,-0.751228 1.97545,-1.363341 0.55645,-0.61211 0.98308,-1.391161 1.27987,-2.337156 0.31532,-0.945987 0.47298,-2.077466 0.473,-3.394441 -2e-5,-0.890336 -0.0928,-1.752857 -0.27823,-2.587565 -0.18551,-0.834688 -0.50084,-1.576641 -0.946,-2.225863 -0.42663,-0.649197 -1.01092,-1.168564 -1.75286,-1.558104 -0.72342,-0.389511 -1.63231,-0.584274 -2.72668,-0.584289 l -6.87236,0 c -0.18549,1.5e-5 -0.27823,0.09276 -0.27823,0.278233 l 0,19.170243 c 0,0.185483 0.0927,0.278227 0.27823,0.278233 l 2.83798,0 c 0.18548,-6e-6 0.27823,-0.09275 0.27823,-0.278233 l 0,-4.674312 m 0,-11.10149 c 0,-0.185478 0.0927,-0.278222 0.27824,-0.278233 l 3.67267,0 c 0.27822,1.1e-5 0.54718,0.09275 0.80687,0.278233 0.27823,0.16695 0.51936,0.380262 0.72341,0.639935 0.22258,0.259694 0.39879,0.556476 0.52864,0.890345 0.14838,0.333889 0.22258,0.649219 0.22259,0.945992 l 0,2.142393 c -1e-5,0.315336 -0.0742,0.639941 -0.22259,0.973815 -0.12985,0.333884 -0.30606,0.63994 -0.52864,0.918168 -0.20405,0.259688 -0.44518,0.482274 -0.72341,0.667759 -0.25969,0.166943 -0.52865,0.250413 -0.80687,0.25041 l -3.67267,0 c -0.1855,3e-6 -0.27824,-0.09274 -0.27824,-0.278233 l 0,-7.150584" />
          <path
             id="path4532"
             d="m 151.64985,-59.134719 10.29462,0 c 0.18547,5e-6 0.27822,-0.09274 0.27823,-0.278233 l 0,-2.893622 c -1e-5,-0.871786 -0.12985,-1.660112 -0.38952,-2.364979 -0.24115,-0.704844 -0.63068,-1.298407 -1.16858,-1.78069 -0.53793,-0.500806 -1.22424,-0.881057 -2.05892,-1.140755 -0.83471,-0.278218 -1.82708,-0.417334 -2.9771,-0.417349 -0.92745,1.5e-5 -1.85489,0.120582 -2.78232,0.361703 -0.9089,0.2226 -1.73433,0.6214 -2.47628,1.196401 -0.7234,0.575027 -1.31697,1.354078 -1.78069,2.337156 -0.44517,0.96455 -0.66776,2.188773 -0.66776,3.672674 0,1.22423 0.12985,2.272239 0.38953,3.144031 0.27823,0.871799 0.73268,1.595203 1.36334,2.170216 0.64921,0.556467 1.49318,0.964541 2.53192,1.224224 1.05728,0.259684 2.36497,0.389526 3.92308,0.389526 l 4.70214,0 c 0.18547,0 0.27822,-0.09274 0.27823,-0.278233 l 0,-2.837975 c -1e-5,-0.185485 -0.0928,-0.278229 -0.27823,-0.278232 l -6.62194,0 c -0.38954,3e-6 -0.76051,-0.04637 -1.11294,-0.139117 -0.35243,-0.111289 -0.65848,-0.250406 -0.91816,-0.417349 -0.24114,-0.185485 -0.43591,-0.389522 -0.58429,-0.612112 -0.1484,-0.241131 -0.22259,-0.500814 -0.22259,-0.779052 0,-0.185483 0.0927,-0.278228 0.27823,-0.278233 m 0,-3.255324 c -0.18549,8e-6 -0.27823,-0.09274 -0.27823,-0.278233 0,-0.352419 0.13911,-0.667749 0.41735,-0.945992 0.27823,-0.296771 0.62138,-0.537906 1.02946,-0.723405 0.42662,-0.204027 0.86252,-0.361692 1.3077,-0.472996 0.46371,-0.111282 0.88106,-0.166928 1.25204,-0.16694 1.16857,1.2e-5 2.07747,0.213323 2.72669,0.639936 0.64919,0.408085 0.9738,0.96455 0.97381,1.669397 -10e-6,0.185497 -0.0927,0.278241 -0.27823,0.278233 l -7.15059,0" />
          <path
             id="path4534"
             d="m 167.67639,-64.22638 c -1e-5,-0.166929 0.0835,-0.324594 0.25041,-0.472996 0.18548,-0.148379 0.38024,-0.222575 0.58429,-0.222586 l 2.69886,0 c 0.38951,1.1e-5 0.75122,0.03711 1.0851,0.111293 0.33387,0.05566 0.62138,0.166951 0.86253,0.333879 0.25967,0.166951 0.45443,0.398811 0.58428,0.695582 0.14838,0.296792 0.22258,0.677043 0.22259,1.140755 l 0,8.847804 c -1e-5,0.185489 0.0927,0.278233 0.27823,0.278233 l 2.81016,0 c 0.20402,0 0.30604,-0.09274 0.30605,-0.278233 l 0,-9.432093 c -1e-5,-0.612102 -0.12058,-1.205665 -0.3617,-1.78069 -0.24115,-0.575003 -0.5843,-1.085096 -1.02946,-1.530281 -0.42664,-0.445159 -0.92746,-0.797587 -1.50246,-1.057285 -0.57503,-0.278218 -1.19641,-0.417334 -1.86416,-0.417349 l -6.28806,0 c -0.59357,1.5e-5 -1.08511,0.194778 -1.47464,0.584289 -0.37097,0.370991 -0.55646,0.78834 -0.55646,1.252048 l 0,11.546663 c 0,0.296782 0.0556,0.556466 0.16694,0.779052 0.12984,0.222586 0.3246,0.333879 0.58429,0.333879 l 1.86416,0 c 0.51936,0 0.77904,-0.296781 0.77905,-0.890345 l 0,-9.821619" />
          <path
             id="path4536"
             d="m 179.58441,-53.792649 c 0,0.185489 0.0927,0.278233 0.27823,0.278233 l 2.83798,0 c 0.18548,0 0.27822,-0.09274 0.27823,-0.278233 l 0,-13.939465 c -1e-5,-0.185474 -0.0927,-0.278218 -0.27823,-0.278233 l -2.83798,0 c -0.18549,1.5e-5 -0.27823,0.09276 -0.27823,0.278233 l 0,13.939465 m 0,-19.392829 0,2.837975 c 0,0.185506 0.0927,0.27825 0.27823,0.278233 l 2.83798,0 c 0.18548,1.7e-5 0.27822,-0.09273 0.27823,-0.278233 l 0,-2.837975 c -1e-5,-0.185468 -0.0927,-0.278213 -0.27823,-0.278232 l -2.83798,0 c -0.18549,1.9e-5 -0.27823,0.09276 -0.27823,0.278232" />
          <path
             id="path4538"
             d="m 188.71028,-64.22638 c -1e-5,-0.166929 0.0835,-0.324594 0.25041,-0.472996 0.18548,-0.148379 0.38024,-0.222575 0.58429,-0.222586 l 2.69886,0 c 0.38951,1.1e-5 0.75122,0.03711 1.0851,0.111293 0.33387,0.05566 0.62138,0.166951 0.86253,0.333879 0.25967,0.166951 0.45443,0.398811 0.58428,0.695582 0.14838,0.296792 0.22258,0.677043 0.22259,1.140755 l 0,8.847804 c -1e-5,0.185489 0.0927,0.278233 0.27823,0.278233 l 2.81016,0 c 0.20402,0 0.30604,-0.09274 0.30605,-0.278233 l 0,-9.432093 c -10e-6,-0.612102 -0.12058,-1.205665 -0.3617,-1.78069 -0.24115,-0.575003 -0.5843,-1.085096 -1.02946,-1.530281 -0.42664,-0.445159 -0.92746,-0.797587 -1.50246,-1.057285 -0.57503,-0.278218 -1.19641,-0.417334 -1.86416,-0.417349 l -6.28806,0 c -0.59357,1.5e-5 -1.08511,0.194778 -1.47464,0.584289 -0.37097,0.370991 -0.55646,0.78834 -0.55646,1.252048 l 0,11.546663 c 0,0.296782 0.0556,0.556466 0.16694,0.779052 0.12984,0.222586 0.3246,0.333879 0.58429,0.333879 l 1.86416,0 c 0.51936,0 0.77904,-0.296781 0.77905,-0.890345 l 0,-9.821619" />
          <path
             id="path4540"
             d="m 201.75905,-50.732087 0,2.559742 c 0,0.185483 0.0927,0.278227 0.27824,0.278233 l 8.34698,0 c 0.50081,-6e-6 0.9738,-0.129848 1.41899,-0.389526 0.44516,-0.24114 0.83468,-0.556471 1.16858,-0.945992 0.33386,-0.370981 0.59354,-0.78833 0.77905,-1.252048 0.20402,-0.445175 0.30604,-0.862524 0.30605,-1.252048 l 0,-14.91328 c -1e-5,-0.482257 -0.13913,-0.82541 -0.41735,-1.029461 -0.27824,-0.222572 -0.64922,-0.333865 -1.11293,-0.33388 l -6.42718,0 c -1.00164,1.5e-5 -1.87343,0.166954 -2.61538,0.500819 -0.72341,0.333893 -1.31698,0.779066 -1.78069,1.335518 -0.46373,0.537929 -0.80688,1.159315 -1.02947,1.86416 -0.22258,0.704867 -0.33388,1.437546 -0.33388,2.198039 l 0,1.780691 c 0,1.094388 0.17622,2.068202 0.52865,2.921444 0.37097,0.834702 0.84397,1.548832 1.41898,2.142393 0.57502,0.575016 1.21495,1.010914 1.91981,1.307695 0.7234,0.296782 1.44681,0.445172 2.17022,0.445172 l 4.14567,0 0,0.695582 c -1e-5,0.166939 -0.009,0.352428 -0.0278,0.556466 -1e-5,0.222585 -0.0371,0.417348 -0.11129,0.584289 -0.0557,0.185487 -0.1484,0.343152 -0.27823,0.472996 -0.12986,0.129839 -0.31534,0.19476 -0.55647,0.194763 l -7.51228,0 c -0.1855,-3e-6 -0.27824,0.09274 -0.27824,0.278233 m 2.30933,-9.932913 0,-0.723405 c 0,-1.00163 0.19476,-1.789955 0.58429,-2.364979 0.40807,-0.575004 1.05728,-0.862511 1.94763,-0.862522 l 3.64485,0 c 0.18548,1.1e-5 0.27823,0.09275 0.27824,0.278233 l 0,7.150584 c -10e-6,0.185492 -0.0928,0.278236 -0.27824,0.278233 l -1.78069,0 c -0.85325,3e-6 -1.56738,-0.07419 -2.14239,-0.222587 -0.55647,-0.148387 -1.00164,-0.380247 -1.33552,-0.695582 -0.33388,-0.315326 -0.57502,-0.704851 -0.7234,-1.168578 -0.12985,-0.463715 -0.19477,-1.02018 -0.19477,-1.669397" />
          <path
             id="path4542"
             d="m 227.55147,-64.22638 c -1e-5,-0.166929 0.0835,-0.324594 0.2504,-0.472996 0.18549,-0.148379 0.38025,-0.222575 0.58429,-0.222586 l 2.69886,0 c 0.38952,1.1e-5 0.75122,0.03711 1.08511,0.111293 0.33387,0.05566 0.62138,0.166951 0.86252,0.333879 0.25968,0.166951 0.45444,0.398811 0.58429,0.695582 0.14838,0.296792 0.22258,0.677043 0.22259,1.140755 l 0,8.847804 c -1e-5,0.185489 0.0927,0.278233 0.27823,0.278233 l 2.81015,0 c 0.20403,0 0.30604,-0.09274 0.30606,-0.278233 l 0,-9.432093 c -2e-5,-0.612102 -0.12058,-1.205665 -0.3617,-1.78069 -0.24115,-0.575003 -0.58431,-1.085096 -1.02947,-1.530281 -0.42663,-0.445159 -0.92745,-0.797587 -1.50245,-1.057285 -0.57503,-0.278218 -1.19642,-0.417334 -1.86416,-0.417349 l -6.28807,0 c -0.59356,1.5e-5 -1.08511,0.194778 -1.47463,0.584289 -0.37098,0.370991 -0.55647,0.78834 -0.55647,1.252048 l 0,11.546663 c 0,0.296782 0.0557,0.556466 0.16694,0.779052 0.12984,0.222586 0.32461,0.333879 0.58429,0.333879 l 1.86416,0 c 0.51937,0 0.77905,-0.296781 0.77906,-0.890345 l 0,-9.821619" />
          <path
             id="path4544"
             d="m 242.46441,-59.134719 10.29462,0 c 0.18547,5e-6 0.27822,-0.09274 0.27823,-0.278233 l 0,-2.893622 c -1e-5,-0.871786 -0.12985,-1.660112 -0.38952,-2.364979 -0.24115,-0.704844 -0.63068,-1.298407 -1.16858,-1.78069 -0.53793,-0.500806 -1.22424,-0.881057 -2.05892,-1.140755 -0.83471,-0.278218 -1.82708,-0.417334 -2.9771,-0.417349 -0.92745,1.5e-5 -1.85489,0.120582 -2.78232,0.361703 -0.9089,0.2226 -1.73433,0.6214 -2.47628,1.196401 -0.7234,0.575027 -1.31697,1.354078 -1.78069,2.337156 -0.44517,0.96455 -0.66776,2.188773 -0.66776,3.672674 0,1.22423 0.12985,2.272239 0.38953,3.144031 0.27823,0.871799 0.73268,1.595203 1.36334,2.170216 0.64921,0.556467 1.49318,0.964541 2.53192,1.224224 1.05728,0.259684 2.36497,0.389526 3.92308,0.389526 l 4.70214,0 c 0.18547,0 0.27822,-0.09274 0.27823,-0.278233 l 0,-2.837975 c -1e-5,-0.185485 -0.0928,-0.278229 -0.27823,-0.278232 l -6.62194,0 c -0.38954,3e-6 -0.76051,-0.04637 -1.11294,-0.139117 -0.35243,-0.111289 -0.65848,-0.250406 -0.91816,-0.417349 -0.24114,-0.185485 -0.43591,-0.389522 -0.58429,-0.612112 -0.1484,-0.241131 -0.22259,-0.500814 -0.22259,-0.779052 0,-0.185483 0.0927,-0.278228 0.27823,-0.278233 m 0,-3.255324 c -0.18549,8e-6 -0.27823,-0.09274 -0.27823,-0.278233 0,-0.352419 0.13911,-0.667749 0.41735,-0.945992 0.27823,-0.296771 0.62138,-0.537906 1.02946,-0.723405 0.42662,-0.204027 0.86252,-0.361692 1.3077,-0.472996 0.46371,-0.111282 0.88106,-0.166928 1.25204,-0.16694 1.16857,1.2e-5 2.07747,0.213323 2.72669,0.639936 0.64919,0.408085 0.9738,0.96455 0.97381,1.669397 -10e-6,0.185497 -0.0927,0.278241 -0.27823,0.278233 l -7.15059,0" />
          <path
             id="path4546"
             d="m 255.62515,-67.732114 0,2.837975 c 0,0.1855 0.0927,0.278244 0.27823,0.278233 l 7.31753,0 c 0.29677,1.1e-5 0.5379,0.129853 0.7234,0.389526 0.18548,0.259694 0.27822,0.519378 0.27824,0.779052 -2e-5,0.31534 -0.14841,0.593573 -0.44518,0.834698 -0.27824,0.222595 -0.65849,0.333889 -1.14075,0.33388 l -4.64649,0 c -0.55647,9e-6 -1.02946,0.157674 -1.41899,0.472996 -0.38953,0.315338 -0.70486,0.704864 -0.94599,1.168578 -0.24114,0.445179 -0.41735,0.936723 -0.52864,1.474634 -0.1113,0.537922 -0.16694,1.029466 -0.16694,1.474634 0,0.241139 0.0371,0.593567 0.11129,1.057284 0.0742,0.463724 0.20404,0.927445 0.38953,1.391165 0.20403,0.463722 0.48227,0.871797 0.8347,1.224224 0.35242,0.33388 0.80687,0.500819 1.36334,0.500819 l 9.71032,0 c 0.18548,0 0.27822,-0.09274 0.27824,-0.278233 l 0,-9.181683 c -2e-5,-0.593554 -0.0742,-1.187116 -0.22259,-1.780691 -0.12986,-0.593551 -0.35244,-1.131467 -0.66776,-1.61375 -0.29679,-0.482257 -0.69559,-0.871783 -1.1964,-1.168578 -0.48228,-0.315316 -1.07584,-0.472981 -1.78069,-0.472996 l -7.84617,0 c -0.18549,1.5e-5 -0.27823,0.09276 -0.27823,0.278233 m 3.53356,10.962374 c -0.33389,3e-6 -0.59357,-0.120564 -0.77905,-0.361703 -0.1855,-0.241131 -0.27824,-0.519364 -0.27824,-0.834698 0,-0.259679 0.0835,-0.49154 0.25041,-0.695582 0.16694,-0.222581 0.38025,-0.333874 0.63994,-0.33388 l 4.95254,0 c 0.18548,6e-6 0.27822,0.09275 0.27824,0.278233 l 0,1.669397 c -2e-5,0.185492 -0.0928,0.278236 -0.27824,0.278233 l -4.7856,0" />
          <path
             id="path4548"
             d="m 273.43202,-68.010347 c -0.50082,1.5e-5 -0.97382,0.102033 -1.41899,0.306056 -0.44517,0.185503 -0.8347,0.445187 -1.16858,0.779052 -0.33388,0.333893 -0.60284,0.723418 -0.80687,1.168578 -0.18549,0.445185 -0.27824,0.908906 -0.27823,1.391164 l 0,10.572848 c -10e-6,0.185489 0.0927,0.278233 0.27823,0.278233 l 3.11621,0 c 0.18548,0 0.27822,-0.09274 0.27823,-0.278233 l 0,-9.599033 c -1e-5,-0.111283 0.0278,-0.23185 0.0835,-0.361702 0.0556,-0.148381 0.12984,-0.278223 0.22259,-0.389526 0.11128,-0.129832 0.23185,-0.241125 0.3617,-0.33388 0.12983,-0.09273 0.27822,-0.139105 0.44517,-0.139116 l 2.67104,0 c 0.18548,1.1e-5 0.27822,-0.09273 0.27823,-0.278233 l 0,-2.837975 c -1e-5,-0.185474 -0.0927,-0.278218 -0.27823,-0.278233 l -3.78397,0" />
          <path
             id="path4550"
             d="m 286.84349,-53.792649 c 0,0.185489 0.0927,0.278233 0.27823,0.278233 l 2.83797,0 c 0.18549,0 0.27823,-0.09274 0.27824,-0.278233 l 0,-10.294615 c -1e-5,-0.222575 0.0649,-0.417338 0.19476,-0.584289 0.14839,-0.166928 0.3246,-0.250398 0.52864,-0.250409 l 2.55974,0 c 0.42662,1.1e-5 0.81615,0.157676 1.16858,0.472996 0.37097,0.296792 0.55646,0.630671 0.55647,1.001638 l 0,9.654679 c -1e-5,0.185489 0.0927,0.278233 0.27823,0.278233 l 2.83798,0 c 0.18547,0 0.27822,-0.09274 0.27823,-0.278233 l 0,-9.654679 c -10e-6,-0.48226 0.15765,-0.843962 0.473,-1.085108 0.33386,-0.259673 0.66774,-0.389515 1.00163,-0.389526 l 1.83634,0 c 0.20402,1.1e-5 0.41733,0.04638 0.63994,0.139116 0.24111,0.07421 0.45443,0.194774 0.63993,0.361703 0.20402,0.16695 0.37096,0.370988 0.50082,0.612112 0.12982,0.222596 0.19474,0.48228 0.19476,0.779052 l 0,9.23733 c -2e-5,0.185489 0.102,0.278233 0.30606,0.278233 l 2.81015,0 c 0.18547,0 0.27821,-0.09274 0.27823,-0.278233 l 0,-9.599033 c -2e-5,-0.519357 -0.12986,-1.047999 -0.38952,-1.585927 -0.24116,-0.556453 -0.59359,-1.057272 -1.05729,-1.502457 -0.44519,-0.445159 -0.98311,-0.806862 -1.61375,-1.085108 -0.63068,-0.296768 -1.32626,-0.445158 -2.08674,-0.445173 l -1.97546,0 c -0.1113,1.5e-5 -0.36171,0.01856 -0.75123,0.05565 -0.37099,0.01856 -0.74196,0.129856 -1.11293,0.333879 -0.20405,0.09276 -0.38026,0.204052 -0.52864,0.33388 -0.12985,0.129855 -0.24115,0.250423 -0.33388,0.361702 -0.0927,0.111307 -0.17622,0.204051 -0.25041,0.278233 -0.0557,0.05566 -0.10203,0.08348 -0.13911,0.08347 -0.0371,1.3e-5 -0.12058,-0.05563 -0.25041,-0.16694 -0.11131,-0.129828 -0.21333,-0.241121 -0.30606,-0.333879 -0.1855,-0.185475 -0.48228,-0.389512 -0.89035,-0.612112 -0.40808,-0.222572 -0.85325,-0.333865 -1.33551,-0.33388 l -5.75942,0 c -0.40808,1.5e-5 -0.79761,0.166954 -1.16858,0.500819 -0.35243,0.315345 -0.52864,0.70487 -0.52864,1.168578 l 0,12.548301" />
          <path
             id="path4552"
             d="m 312.55247,-59.134719 10.29462,0 c 0.18547,5e-6 0.27822,-0.09274 0.27823,-0.278233 l 0,-2.893622 c -10e-6,-0.871786 -0.12986,-1.660112 -0.38953,-2.364979 -0.24114,-0.704844 -0.63067,-1.298407 -1.16857,-1.78069 -0.53793,-0.500806 -1.22424,-0.881057 -2.05893,-1.140755 -0.83471,-0.278218 -1.82707,-0.417334 -2.97709,-0.417349 -0.92745,1.5e-5 -1.85489,0.120582 -2.78233,0.361703 -0.90889,0.2226 -1.73432,0.6214 -2.47627,1.196401 -0.72341,0.575027 -1.31697,1.354078 -1.78069,2.337156 -0.44517,0.96455 -0.66776,2.188773 -0.66776,3.672674 0,1.22423 0.12984,2.272239 0.38953,3.144031 0.27823,0.871799 0.73268,1.595203 1.36334,2.170216 0.64921,0.556467 1.49318,0.964541 2.53192,1.224224 1.05728,0.259684 2.36497,0.389526 3.92308,0.389526 l 4.70214,0 c 0.18547,0 0.27822,-0.09274 0.27823,-0.278233 l 0,-2.837975 c -10e-6,-0.185485 -0.0928,-0.278229 -0.27823,-0.278232 l -6.62195,0 c -0.38953,3e-6 -0.7605,-0.04637 -1.11293,-0.139117 -0.35243,-0.111289 -0.65849,-0.250406 -0.91817,-0.417349 -0.24113,-0.185485 -0.4359,-0.389522 -0.58428,-0.612112 -0.1484,-0.241131 -0.22259,-0.500814 -0.22259,-0.779052 0,-0.185483 0.0927,-0.278228 0.27823,-0.278233 m 0,-3.255324 c -0.18549,8e-6 -0.27823,-0.09274 -0.27823,-0.278233 0,-0.352419 0.13911,-0.667749 0.41735,-0.945992 0.27823,-0.296771 0.62138,-0.537906 1.02946,-0.723405 0.42662,-0.204027 0.86252,-0.361692 1.30769,-0.472996 0.46372,-0.111282 0.88107,-0.166928 1.25205,-0.16694 1.16857,1.2e-5 2.07746,0.213323 2.72668,0.639936 0.6492,0.408085 0.97381,0.96455 0.97382,1.669397 -10e-6,0.185497 -0.0928,0.278241 -0.27823,0.278233 l -7.15059,0" />
          <path
             id="path4554"
             d="m 327.57735,-58.327844 c 0,0.185493 0.0927,0.278237 0.27824,0.278233 l 3.47791,0 c 0.18548,4e-6 0.27822,-0.09274 0.27823,-0.278233 l 0,-1.391164 c -1e-5,-0.352422 0.0278,-0.658478 0.0835,-0.918168 0.0556,-0.259677 0.15766,-0.472989 0.30606,-0.639936 0.14838,-0.185481 0.36169,-0.315322 0.63993,-0.389526 0.29677,-0.09274 0.67703,-0.139108 1.14076,-0.139116 1.74358,8e-6 2.99562,-0.51936 3.75614,-1.558104 0.77904,-1.038725 1.16856,-2.439163 1.16858,-4.201316 -2e-5,-0.704842 -0.0928,-1.409698 -0.27824,-2.11457 -0.1855,-0.704839 -0.47301,-1.3355 -0.86252,-1.891983 -0.38954,-0.556447 -0.88108,-1.010894 -1.47463,-1.363341 -0.57503,-0.352409 -1.26133,-0.528623 -2.05892,-0.528642 l -8.93128,0 c -0.18549,1.9e-5 -0.27823,0.09276 -0.27823,0.278232 l 0,3.060562 c 0,0.185505 0.0927,0.278249 0.27823,0.278232 l 8.04093,0 c 0.31532,1.7e-5 0.57501,0.07421 0.77905,0.222587 0.20403,0.148407 0.36169,0.333895 0.473,0.556465 0.11128,0.222602 0.18548,0.454462 0.22258,0.695583 0.0556,0.241149 0.0835,0.454461 0.0835,0.639935 -1e-5,0.70487 -0.12057,1.242786 -0.3617,1.613751 -0.22259,0.370989 -0.72341,0.556477 -1.50246,0.556465 -0.9089,1.2e-5 -1.69722,0.157677 -2.36497,0.472996 -0.64922,0.296793 -1.19641,0.714142 -1.64158,1.252048 -0.42663,0.519378 -0.74196,1.131489 -0.94599,1.836337 -0.20404,0.704864 -0.30606,1.465366 -0.30606,2.281509 l 0,1.391164 m 4.03438,1.307694 c -10e-6,-0.185484 -0.0928,-0.278229 -0.27823,-0.278232 l -3.47791,0 c -0.1855,3e-6 -0.27824,0.09275 -0.27824,0.278232 l 0,3.227501 c 0,0.185489 0.0927,0.278233 0.27824,0.278233 l 3.47791,0 c 0.18548,0 0.27822,-0.09274 0.27823,-0.278233 l 0,-3.227501" />
        </g>
      </g>
    </g>
  </g>
</svg>
