<?xml version="1.0" encoding="UTF-8" standalone="no"?>
<!-- Created with Inkscape (http://www.inkscape.org/) -->

<svg
   xmlns:dc="http://purl.org/dc/elements/1.1/"
   xmlns:cc="http://creativecommons.org/ns#"
   xmlns:rdf="http://www.w3.org/1999/02/22-rdf-syntax-ns#"
   xmlns:svg="http://www.w3.org/2000/svg"
   xmlns="http://www.w3.org/2000/svg"
   xmlns:xlink="http://www.w3.org/1999/xlink"
   xmlns:sodipodi="http://sodipodi.sourceforge.net/DTD/sodipodi-0.dtd"
   xmlns:inkscape="http://www.inkscape.org/namespaces/inkscape"
   width="744.09448819"
   height="1052.3622047"
   id="svg2"
   version="1.1"
   inkscape:version="0.47 r22583"
   sodipodi:docname="mememe.svg"
   inkscape:export-filename="/home/lincoln/Desktop/yahoo_logo_br_061509.png"
   inkscape:export-xdpi="90"
   inkscape:export-ydpi="90">
  <defs
     id="defs4">
    <linearGradient
       inkscape:collect="always"
       id="linearGradient4536">
      <stop
         style="stop-color:#592c71;stop-opacity:1;"
         offset="0"
         id="stop4538" />
      <stop
         style="stop-color:#592c71;stop-opacity:0;"
         offset="1"
         id="stop4540" />
    </linearGradient>
    <linearGradient
       inkscape:collect="always"
       id="linearGradient3802">
      <stop
         style="stop-color:#75507b;stop-opacity:1;"
         offset="0"
         id="stop3804" />
      <stop
         style="stop-color:#75507b;stop-opacity:0;"
         offset="1"
         id="stop3806" />
    </linearGradient>
    <inkscape:perspective
       sodipodi:type="inkscape:persp3d"
       inkscape:vp_x="0 : 526.18109 : 1"
       inkscape:vp_y="0 : 1000 : 0"
       inkscape:vp_z="744.09448 : 526.18109 : 1"
       inkscape:persp3d-origin="372.04724 : 350.78739 : 1"
       id="perspective10" />
    <radialGradient
       inkscape:collect="always"
       xlink:href="#linearGradient3802"
       id="radialGradient3810"
       cx="397.5506"
       cy="259.08823"
       fx="397.5506"
       fy="259.08823"
       r="138.76459"
       gradientTransform="matrix(1,-3.3625712e-8,1.6825334e-8,0.50037107,-5.3889589e-6,129.44799)"
       gradientUnits="userSpaceOnUse" />
    <inkscape:perspective
       id="perspective3997"
       inkscape:persp3d-origin="0.5 : 0.33333333 : 1"
       inkscape:vp_z="1 : 0.5 : 1"
       inkscape:vp_y="0 : 1000 : 0"
       inkscape:vp_x="0 : 0.5 : 1"
       sodipodi:type="inkscape:persp3d" />
    <inkscape:perspective
       id="perspective4208"
       inkscape:persp3d-origin="400 : 50.553711 : 1"
       inkscape:vp_z="800 : 75.830566 : 1"
       inkscape:vp_y="0 : 1000 : 0"
       inkscape:vp_x="0 : 75.830566 : 1"
       sodipodi:type="inkscape:persp3d" />
    <inkscape:perspective
       id="perspective4304"
       inkscape:persp3d-origin="0.5 : 0.33333333 : 1"
       inkscape:vp_z="1 : 0.5 : 1"
       inkscape:vp_y="0 : 1000 : 0"
       inkscape:vp_x="0 : 0.5 : 1"
       sodipodi:type="inkscape:persp3d" />
    <linearGradient
       inkscape:collect="always"
       xlink:href="#linearGradient4536"
       id="linearGradient4542"
       x1="277.30798"
       y1="15.789443"
       x2="277.30798"
       y2="169.62315"
       gradientUnits="userSpaceOnUse"
       gradientTransform="matrix(0.02898549,0,0,0.86956521,-267.39036,17.958438)" />
  </defs>
  <sodipodi:namedview
     id="base"
     pagecolor="#ffffff"
     bordercolor="#666666"
     borderopacity="1.0"
     inkscape:pageopacity="0.0"
     inkscape:pageshadow="2"
     inkscape:zoom="1"
     inkscape:cx="196.33417"
     inkscape:cy="1033.1685"
     inkscape:document-units="px"
     inkscape:current-layer="layer1"
     showgrid="false"
     inkscape:window-width="1280"
     inkscape:window-height="729"
     inkscape:window-x="0"
     inkscape:window-y="24"
     inkscape:window-maximized="1"
     showguides="true"
     inkscape:guide-bbox="true" />
  <metadata
     id="metadata7">
    <rdf:RDF>
      <cc:Work
         rdf:about="">
        <dc:format>image/svg+xml</dc:format>
        <dc:type
           rdf:resource="http://purl.org/dc/dcmitype/StillImage" />
        <dc:title />
      </cc:Work>
    </rdf:RDF>
  </metadata>
  <g
     inkscape:label="Layer 1"
     inkscape:groupmode="layer"
     id="layer1">
    <path
       sodipodi:nodetypes="cccccccccccc"
       id="path3673"
       d="m 1004.0397,313.96272 44.813,0 -20.6988,37.89151 13.1228,0 -13.1036,29.01909 12.414,0 -35.6945,39.73712 12.6313,-39.73712 -14.8257,0 6.0513,-29.01909 -12.70431,0 7.99451,-37.89151 z"
       style="fill:#729fcf;fill-opacity:1;stroke:none" />
    <path
       style="fill:#3465a4;fill-opacity:1;stroke:none"
       d="m 1102.3911,397.54102 47.9914,0 -22.1668,40.57907 14.0535,0 -14.033,31.07734 13.2945,0 -38.2262,42.55558 13.5272,-42.55558 -15.8772,0 6.4804,-31.07734 -13.6054,0 8.5616,-40.57907 z"
       id="path3675"
       sodipodi:nodetypes="cccccccccccc" />
    <g
       id="g3737"
       transform="translate(-198.54406,8.9233286)">
      <g
         id="g3742"
         transform="matrix(1,0.04406482,0,1,2.2308321,-17.096866)" />
    </g>
    <g
       id="g4377"
       transform="translate(887.68556,-299.86993)">
      <path
         id="path2816"
         d="M 114.47631,69.206022 C 64.962997,69.616782 -15.586733,112.89967 14.288817,187.98727 c -3.00112,-0.34751 -5.9947703,-0.37175 -8.9062503,0 -18.3717097,2.34578 -26.1815797,18.82604 -23.7812497,37.625 1.52253,11.92419 23.5357097,19.65544 39.59375,26.75 9.25809,4.0903 12.40648,11.29535 19.125,10.4375 6.40777,-0.81817 9.61452,-4.34421 10.9375,-9.375 1.42747,3.3191 2.7817,6.78168 4.125,10.34375 10.13983,26.88806 13.00504,19.15194 80.531243,40.46875 48.22871,15.22494 45.43948,13.343 60.78125,-31.5625 7.4381,-21.77138 49.84885,-31.65419 29.125,-61.90625 C 267.41383,103.90403 177.66732,68.686102 114.47631,69.206022 z"
         style="fill:#592c71;fill-opacity:1;stroke:none" />
      <path
         style="fill:#ffffff;fill-opacity:0.97058835;stroke:none"
         d="m 184.88314,234.78002 c -2.50823,13.92653 -6.2354,19.81387 5.11614,19.86819 17.32023,0.0829 33.3536,-19.6896 35.86183,-33.61613 2.50823,-13.92654 -8.13338,-20.00659 -14.86176,-10.86388 -10.9953,14.94071 -23.95967,23.19657 -26.11621,24.61182 z"
         id="path3607"
         sodipodi:nodetypes="csssc" />
      <path
         style="fill:#592c71;fill-opacity:1;stroke:none"
         d="m 165.14976,260.69087 c -2.89718,-8.44448 -8.89628,-18.94783 -1.01467,-21.91241 2.8823,-1.08415 4.98134,1.92528 9.46848,2.86859 7.78288,1.63615 18.25034,2.95176 20.08803,8.3081 2.89717,8.44449 1.06903,16.86114 -6.81258,19.82573 -7.88162,2.96459 -18.83208,-0.64552 -21.72926,-9.09001 z"
         id="path3611"
         sodipodi:nodetypes="cssssc" />
      <path
         sodipodi:nodetypes="csssc"
         id="path3604"
         d="m 185.15508,234.65775 c 0,20.10015 -21.43838,36.39455 -47.88396,36.39455 -26.44558,0 -54.593793,-30.3323 -54.593793,-50.43245 0,-20.10016 38.301053,-42.6481 54.593793,-22.35666 14.39095,17.9229 30.09867,42.73768 47.88396,36.39456 z"
         style="fill:#ffffff;fill-opacity:0.97058835;stroke:none" />
      <path
         style="fill:#ffffff;fill-opacity:1"
         id="path4227"
         d="m 225.07933,159.86974 c -1.61539,0.15961 -8.34018,1.66618 -10.60045,2.15064 -2.42027,0.64406 -24.53245,17.72747 -25.98502,21.92235 -0.32203,1.45176 -0.48345,3.68542 -0.48345,5.78448 l -0.16202,3.39039 c 0,2.41907 0.67207,6.32054 0.9939,8.41798 1.45378,0.32404 11.97503,0.0411 13.91125,0.36274 l -0.2382,4.33916 c -1.89188,-0.13783 -15.25217,-0.10559 -22.88501,-0.10559 -3.87466,0 -16.33012,0.42722 -20.15701,0.31195 l 0.72346,-4.12636 c 2.09845,-0.16283 10.78686,0.37483 12.69688,-1.64119 0.94876,-1.00035 0.64648,-2.07245 0.64648,-7.88192 l 0,-2.74312 c 0,-1.29135 0,-3.71364 -0.32385,-5.9739 -0.80649,-2.42149 -20.28256,-26.73952 -25.28574,-30.61197 -1.45378,-0.48365 -10.55732,-1.39413 -12.81658,-1.87939 l -0.11245,-3.71727 c 1.12711,-0.56507 11.25015,0.13744 21.07394,-0.22611 6.45636,-0.2386 21.1876,0 23.00512,0.21643 l -0.46572,3.27594 c -1.93622,0.48486 -11.26406,0.66422 -13.68554,1.30908 6.29514,9.3611 16.24809,21.41291 19.47667,26.09385 1.77642,-2.5819 17.37944,-13.31655 17.86309,-17.02858 -2.42188,-0.48608 -10.43822,-1.63959 -11.72997,-1.63959 l -0.76679,-4.22631 c 2.19759,-0.3438 13.75285,0 19.49763,0 4.95784,0 15.55183,0 18.56217,0.24666 l -2.75279,3.97965" />
    </g>
    <path
       style="fill:#592c71"
       id="path2217"
       d="m 948.87631,929.87563 c -2.57213,0.25414 -13.27974,2.653 -16.87868,3.42439 -3.85371,1.02551 -39.06206,28.22674 -41.37493,34.90608 -0.51276,2.31158 -0.76977,5.86816 -0.76977,9.2104 l -0.25799,5.3984 c 0,3.85179 1.07012,10.06394 1.58255,13.40361 2.3148,0.51596 19.06737,0.0654 22.15034,0.57757 l -0.37927,6.90912 c -3.01238,-0.2195 -24.28544,-0.1682 -36.43891,-0.1682 -6.16947,0 -26.0018,0.6803 -32.09522,0.4967 l 1.15194,-6.5702 c 3.34128,-0.25927 17.17549,0.59683 20.21675,-2.6132 1.51067,-1.59283 1.02936,-3.29989 1.02936,-12.55008 v -4.36775 c 0,-2.05617 0,-5.91309 -0.51565,-9.51202 -1.28414,-3.85564 -32.29512,-42.57629 -40.26149,-48.74223 -2.31479,-0.7701 -16.81001,-2.21982 -20.40734,-2.99248 l -0.17905,-5.91887 c 1.79466,-0.89973 17.91318,0.21884 33.55521,-0.36002 10.28019,-0.37991 33.73617,0 36.63014,0.34462 l -0.74154,5.21615 c -3.08297,0.77202 -17.93532,1.0576 -21.79096,2.0844 10.0235,14.9053 25.87121,34.09492 31.01195,41.54821 2.82852,-4.11106 27.6726,-21.20343 28.4427,-27.11395 -3.85628,-0.77396 -16.62038,-2.61065 -18.67718,-2.61065 l -1.22093,-6.72939 c 3.49914,-0.54741 21.89812,0 31.04531,0 7.89417,0 24.76258,0 29.55581,0.39275 l -4.38315,6.33664" />
    <path
       style="fill:#592c71"
       id="path2219"
       d="m 959.61729,949.3027 -0.16044,-1.02102 c -2.91548,6.80448 -7.86658,17.49604 -8.83754,20.08614 l 15.95263,-0.007 c -1.94451,-5.0217 -5.4966,-14.84754 -6.95465,-19.05806 m 42.36511,51.52554 c -1.1314,-0.1637 -14.00937,-0.1618 -18.70506,-0.1618 -2.75567,0 -16.78113,-0.082 -19.21272,-0.082 l 0.72902,-6.0183 c 3.24213,-0.16108 9.26817,-1.47346 12.02384,-1.79691 -1.7815,-4.04687 -7.66057,-16.90306 -8.95627,-19.33209 -3.40192,0 -15.63624,0.38313 -19.03816,1.03066 -0.64689,1.13461 -5.29124,5.68912 -6.09856,11.8435 2.26859,0.48516 6.61837,1.42083 9.20912,1.74363 l -0.95813,6.15054 c -2.75247,-0.16172 -13.73474,0.16108 -16.32613,0 -2.43224,0 -13.7171,0.0269 -15.82364,0.3504 l 2.00611,-6.50094 c 2.59011,-0.3228 8.56223,-2.17938 10.82697,-2.66262 3.4032,-4.85804 19.15689,-35.65244 20.45387,-38.56919 -2.10815,-0.48709 -5.68527,-2.18003 -7.95578,-2.50347 l -0.31125,-4.4499 c 2.75439,0.16429 16.44293,0.57501 17.89713,0.50249 3.25689,-0.15916 15.34618,-0.0995 18.10122,-0.25862 l -1.02103,4.37032 c -2.42902,0.15915 -6.38093,1.34382 -8.65015,1.82898 1.13397,3.40128 5.64483,14.36687 9.04675,22.46512 2.59203,5.83351 6.89368,17.2618 10.94249,23.90392 2.75246,0.48516 9.06986,2.33981 11.98536,2.5009 l 0.1636,1.62299 -0.3286,4.02189 z" />
    <path
       style="fill:#592c71"
       id="path2221"
       d="m 1096.864,984.15873 c -2.234,-0.17199 -12.9833,-0.15659 -18.4799,0 -4.4082,0.1245 -14.8803,-0.40045 -19.8654,-0.18418 l -0.3805,-6.10754 c 1.7173,-0.17327 12.4416,-0.9023 14.5022,-1.24884 0.6867,-3.26331 0.3581,-7.89418 0.3581,-11.84159 l -0.265,-7.19145 c -5.4985,0 -41.8473,1.89124 -43.3945,2.06002 l -2.6556,0.34654 c 0,9.79761 0.5153,12.89341 1.2033,16.50197 2.9232,0.51212 13.4081,1.20008 15.6401,1.54662 l -0.1354,6.65624 c -2.5799,-0.17263 -18.7025,0 -23.6877,0 -6.0132,0 -20.6393,-0.12963 -24.07716,0.0424 l 0.46591,-6.87186 c 2.7499,-0.17328 13.14565,-1.19687 15.38015,-1.53892 0.344,-4.47364 0.5154,-11.51557 0.5154,-18.90725 v -9.109 c 0,-3.09325 -0.1714,-12.03026 -0.3446,-15.12606 -2.2346,-0.33885 -12.63034,-1.03578 -15.72358,-1.20714 l -0.54869,-5.20395 c 2.06194,0.17456 16.41277,-0.21884 23.97327,-0.21884 7.047,0 23.0253,0.13926 24.9159,-0.0346 l -0.5602,5.45744 c -3.2653,0.17136 -14.0935,1.03065 -15.9835,1.37399 -0.5179,2.58048 -1.0332,4.8157 -1.0332,13.06347 l -0.2535,4.29973 c 3.0933,0 41.4353,-0.15081 46.2105,-0.83107 v -5.92271 c 0,-7.5611 1.1738,-15.73636 0.3158,-17.9735 -1.8919,-0.51276 -12.1355,-1.95542 -15.4033,-2.12933 l 0.4582,-5.48633 c 2.0632,0.17328 11.7196,0.11488 18.9361,0.28751 7.5624,0 18.5492,0.31061 20.7825,-0.0327 l -0.5076,4.51856 c -2.2333,0.17328 -12.1978,2.69279 -12.1978,2.69279 0,0 -0.6803,4.70917 -0.1803,11.48284 0.4126,5.62494 0.5384,16.68872 0.5384,16.68872 0.2849,12.31904 1.0448,22.27387 0.3587,22.79176 -0.8265,0.61673 7.8903,1.14745 10.2944,1.49336 l 0.9408,1.63261 -0.1123,4.23041" />
    <path
       style="fill:#592c71"
       id="path2223"
       d="m 1171.694,956.88242 c 0.6225,-17.37026 -12.973,-21.99407 -30.1475,-20.81518 -8.9865,0.61737 -27.2738,5.36824 -27.2738,20.81518 0,15.26595 14.028,23.53298 32.746,21.90037 14.4868,-1.2604 22.0897,-6.59463 23.9559,-14.00621 l 0.7194,-7.89416 m 13.8169,-1.4356 c 0.8156,20.99037 -18.3509,31.40213 -43.2457,31.40213 -10.3604,0 -22.9708,-1.97402 -33.7368,-8.43388 -8.3992,-5.04031 -9.7899,-11.57782 -9.7899,-19.755 0,-16.90307 18.4009,-30.91505 46.5712,-30.73279 10.7211,0 21.0565,1.63518 29.4101,8.15023 7.4546,5.81362 8.7137,8.70085 10.0723,15.06188 l 0.7188,4.30743 z" />
    <path
       style="fill:#592c71"
       id="path2225"
       d="m 1303.4639,990.80213 -5.9631,-0.51147 -0.063,-12.91587 7.5495,0.9408 6.766,0.31382 -1.8778,12.64698 -6.411,-0.47426 m 7.6811,-22.81486 -11.128,-1.08007 c 1.1674,-5.62687 0.1515,-48.82373 0.061,-53.43214 l -0.5731,-9.07435 c 3.1003,0.61095 2.6306,0.29007 15.712,1.66598 7.9603,0.83556 8.9993,1.19237 11.6189,1.2957 l -3.4192,10.76087 c -2.9174,8.60651 -11.3738,46.98896 -12.2716,49.86401 z" />
    <path
       style="fill:#592c71"
       id="path2227"
       d="m 1275.0511,949.70572 c 1.1834,-18.87388 -17.0006,-25.74895 -36.6048,-24.40513 -10.2597,0.70272 -29.4294,6.76983 -29.4294,24.40513 0,17.42545 16.0425,26.21037 37.4172,24.34929 16.5328,-1.44073 23.4156,-7.66057 27.1833,-16.09381 0,0 1.0775,-2.51438 1.4337,-8.25548 m 14.8308,-2.78777 c 1.4677,19.65554 -21.2162,35.98167 -49.6426,35.98167 -11.8242,0 -21.8907,-1.43367 -33.5552,-9.14816 -9.5929,-6.34627 -14.1756,-11.84478 -15.3725,-22.6724 -2.1216,-19.17742 21.0071,-35.29306 53.1665,-35.08577 12.242,0 24.0374,1.86236 33.5796,9.30346 8.5064,6.63441 9.9946,12.93062 11.5476,20.19781 l 0.2766,1.42339 z" />
    <path
       style="fill:#592c71"
       id="path2229"
       d="m 1323.579,984.64197 h 1.1513 c 0.9985,0 1.9656,-0.0507 1.9656,-1.23408 0,-1.01782 -0.8836,-1.13719 -1.6435,-1.13719 h -1.4734 v 2.37127 m -1.118,-3.28769 h 2.7769 c 1.7449,0 2.5753,0.69373 2.5753,2.10238 0,1.33868 -0.8464,1.89958 -1.9477,2.01574 l 2.1197,3.25559 h -1.2039 l -1.9984,-3.17024 h -1.2039 v 3.17024 h -1.118 v -7.37371 l 0,0 z m 2.4034,9.0859 c 2.8821,0 5.1866,-2.33982 5.1866,-5.3907 0,-3.05088 -2.3045,-5.3907 -5.1866,-5.3907 -2.8969,0 -5.186,2.33982 -5.186,5.3907 0,3.05088 2.2891,5.3907 5.186,5.3907 z m 0,-11.69718 c 3.4244,0 6.3065,2.71332 6.3065,6.30648 0,3.5938 -2.8821,6.30648 -6.3065,6.30648 -3.4392,0 -6.3027,-2.71268 -6.3027,-6.30648 0,-3.59316 2.8635,-6.30648 6.3027,-6.30648 z" />
    <text
       id="text4431"
       y="148.13483"
       x="-136.03419"
       style="font-size:40px;font-style:normal;font-weight:normal;fill:#000000;fill-opacity:1;stroke:none;font-family:Bitstream Vera Sans"
       xml:space="preserve"><tspan
         y="148.13483"
         x="-136.03419"
         id="tspan4433"
         sodipodi:role="line" /></text>
    <g
       id="g4384"
       transform="translate(970.7757,137.90786)">
      <path
         style="fill:#592c71;fill-opacity:1;stroke:none"
         d="m 69.907666,415.33496 c -49.51332,0.41076 -130.06305,43.69365 -100.1875,118.78125 -3.00112,-0.34751 -5.99477,-0.37175 -8.90625,0 -18.37171,2.34578 -26.18158,18.82604 -23.78125,37.625 1.52253,11.92419 23.53571,19.65544 39.59375,26.75 9.25809,4.0903 12.40648,11.29535 19.1250001,10.4375 6.40777,-0.81817 9.61452,-4.34421 10.9375,-9.375 1.42747,3.3191 2.7817,6.78168 4.1249999,10.34375 10.13983,26.88806 13.00504,19.15194 80.53125,40.46875 48.228714,15.22494 45.439484,13.343 60.781254,-31.5625 7.4381,-21.77138 49.84885,-31.65419 29.125,-61.90625 C 222.84519,450.03297 133.09868,414.81504 69.907666,415.33496 z"
         id="path4262" />
      <path
         sodipodi:nodetypes="csssc"
         id="path4264"
         d="m 140.3145,580.90896 c -2.50823,13.92653 -6.2354,19.81387 5.11614,19.86819 17.32023,0.0829 33.3536,-19.6896 35.86183,-33.61613 2.50823,-13.92654 -8.13338,-20.00659 -14.86176,-10.86388 -10.9953,14.94071 -23.95967,23.19657 -26.11621,24.61182 z"
         style="fill:#ffffff;fill-opacity:0.97058835;stroke:none" />
      <path
         style="fill:#ffffff;fill-opacity:0.97058835;stroke:none"
         d="m 140.58644,580.78669 c 0,20.10015 -21.43838,36.39455 -47.883964,36.39455 -26.44559,0 -54.5938,-30.3323 -54.5938,-50.43245 0,-20.10016 38.30106,-42.6481 54.5938,-22.35666 14.390954,17.9229 30.098674,42.73768 47.883964,36.39456 z"
         id="path4266"
         sodipodi:nodetypes="csssc" />
      <g
         transform="translate(-335.4723,284.53736)"
         id="g4257">
        <path
           style="fill:#ffffff;fill-opacity:0.97058835;stroke:none"
           d="m 445.87796,258.33361 c 0,14.18161 11.49647,25.6781 25.67809,25.6781 29.52504,-4.90416 28.6996,-46.934 0,-51.35621 -14.18162,0 -25.67809,11.49649 -25.67809,25.67811 z"
           id="path3765"
           sodipodi:nodetypes="cccs" />
        <path
           id="path3767"
           d="m 464.34196,249.35295 0,4.35618 c -2.92556,0 -5.27993,2.38091 -5.27993,5.30645 0,2.92556 2.35437,5.30647 5.27993,5.30647 l 0,4.51044 5.30316,-0.45888 0,-18.80522 -5.30316,-0.21544 z"
           style="fill:#592c71;fill-opacity:1;stroke:none"
           sodipodi:nodetypes="ccsccccc" />
        <path
           style="fill:#592c71;fill-opacity:1;stroke:none"
           d="m 480.97724,251.44953 0,3.10226 c 2.69752,0 4.86841,2.19534 4.86841,4.89287 0,2.69754 -2.17089,4.89288 -4.86841,4.89288 l 0,2.16765 -4.89286,0.42558 0,-7.48611 0,-8.18999 4.89286,0.19486 0,0 z"
           id="path3769"
           sodipodi:nodetypes="ccsccccccc" />
      </g>
    </g>
    <g
       id="g4366"
       transform="translate(936.36652,-257.76748)">
      <g
         transform="translate(-351.12527,-106.52229)"
         id="g4282">
        <rect
           style="fill:#592c71;fill-opacity:1;stroke:none"
           id="rect3615"
           width="87.608376"
           height="87.608376"
           x="-667.46417"
           y="194.90302"
           transform="scale(-1,1)"
           ry="3.857964" />
        <path
           sodipodi:type="arc"
           style="fill:#ffffff;fill-opacity:0.97058835;stroke:none"
           id="path3617"
           sodipodi:cx="521.22205"
           sodipodi:cy="222.82623"
           sodipodi:rx="36.654518"
           sodipodi:ry="36.654518"
           d="m 557.87656,222.82623 c 0,20.24373 -16.41078,36.65452 -36.65451,36.65452 -20.24374,0 -36.65452,-16.41079 -36.65452,-36.65452 0,-20.24373 16.41078,-36.65452 36.65452,-36.65452 20.24373,0 36.65451,16.41079 36.65451,36.65452 z"
           transform="matrix(-0.9207805,0,0,0.9207805,1104.18,33.533147)" />
        <path
           style="fill:#592c71;fill-opacity:1;stroke:none"
           d="m 609.23718,228.86763 0,3.40848 c -3.54558,0 -6.39894,2.88551 -6.39894,6.43109 0,3.54558 2.85336,6.4311 6.39894,6.4311 l 0,3.40848 6.43109,0 0,-9.83958 0,-9.83957 -6.43109,0 z"
           id="rect3619" />
        <path
           id="path3624"
           d="m 639.26074,228.86763 0,3.40848 c 3.54558,0 6.39894,2.88551 6.39894,6.43109 0,3.54558 -2.85336,6.4311 -6.39894,6.4311 l 0,3.40848 -6.43109,0 0,-9.83958 0,-9.83957 6.43109,0 z"
           style="fill:#592c71;fill-opacity:1;stroke:none" />
      </g>
      <text
         sodipodi:linespacing="125%"
         id="text3630"
         y="208.509"
         x="226.48392"
         style="font-size:37.40604401px;font-style:normal;font-variant:normal;font-weight:bold;font-stretch:normal;text-align:start;line-height:125%;writing-mode:lr-tb;text-anchor:start;fill:#592c71;fill-opacity:1;stroke:none;font-family:Liberation Mono;-inkscape-font-specification:Liberation Mono Bold"
         xml:space="preserve"><tspan
           y="208.509"
           x="226.48392"
           id="tspan3632"
           sodipodi:role="line">TEAM</tspan></text>
      <text
         xml:space="preserve"
         style="font-size:37.40604401px;font-style:normal;font-variant:normal;font-weight:bold;font-stretch:normal;text-align:start;line-height:125%;writing-mode:lr-tb;text-anchor:start;fill:#592c71;fill-opacity:1;stroke:none;font-family:Liberation Mono;-inkscape-font-specification:Liberation Mono Bold"
         x="226.48392"
         y="80.509033"
         id="text4278"
         sodipodi:linespacing="125%"><tspan
           sodipodi:role="line"
           id="tspan4280"
           x="226.48392"
           y="80.509033">220V</tspan></text>
    </g>
    <g
       id="g4393"
       transform="translate(581.32802,-209.43738)">
      <rect
         ry="0"
         y="381.05154"
         x="452.82587"
         height="93.247742"
         width="183.5195"
         id="rect4288"
         style="fill:#592c71;fill-opacity:1;stroke:none" />
      <rect
         ry="3.159019"
         transform="scale(-1,1)"
         y="390.36917"
         x="-534.05133"
         height="71.73642"
         width="71.73642"
         id="rect3615-8"
         style="fill:#eeeeec;fill-opacity:1;stroke:none" />
      <path
         transform="matrix(-0.75396326,0,0,0.75396326,891.64761,258.23458)"
         d="m 557.87656,222.82623 c 0,20.24373 -16.41078,36.65452 -36.65451,36.65452 -20.24374,0 -36.65452,-16.41079 -36.65452,-36.65452 0,-20.24373 16.41078,-36.65452 36.65452,-36.65452 20.24373,0 36.65451,16.41079 36.65451,36.65452 z"
         sodipodi:ry="36.654518"
         sodipodi:rx="36.654518"
         sodipodi:cy="222.82623"
         sodipodi:cx="521.22205"
         id="path3617-9"
         style="fill:#ffffff;fill-opacity:0.97058835;stroke:none"
         sodipodi:type="arc" />
      <path
         id="rect3619-7"
         d="m 486.37328,418.18042 0,2.79097 c -2.90323,0 -5.23965,2.36275 -5.23965,5.26598 0,2.90323 2.33642,5.26598 5.23965,5.26598 l 0,2.79097 5.26597,0 0,-8.05695 0,-8.05695 -5.26597,0 z"
         style="fill:#592c71;fill-opacity:1;stroke:none" />
      <path
         style="fill:#592c71;fill-opacity:1;stroke:none"
         d="m 510.95749,418.18042 0,2.79097 c 2.90323,0 5.23965,2.36275 5.23965,5.26598 0,2.90323 -2.33642,5.26598 -5.23965,5.26598 l 0,2.79097 -5.26597,0 0,-8.05695 0,-8.05695 5.26597,0 z"
         id="path3624-3" />
      <text
         sodipodi:linespacing="125%"
         id="text3630-6"
         y="461.21771"
         x="539.5368"
         style="font-size:37.40604401px;font-style:normal;font-variant:normal;font-weight:bold;font-stretch:normal;text-align:start;line-height:125%;writing-mode:lr-tb;text-anchor:start;fill:#eeeeec;fill-opacity:1;stroke:none;font-family:Liberation Mono;-inkscape-font-specification:Liberation Mono Bold"
         xml:space="preserve"><tspan
           y="461.21771"
           x="539.5368"
           id="tspan3632-1"
           sodipodi:role="line">TEAM</tspan></text>
      <text
         xml:space="preserve"
         style="font-size:37.40604401px;font-style:normal;font-variant:normal;font-weight:bold;font-stretch:normal;text-align:start;line-height:125%;writing-mode:lr-tb;text-anchor:start;fill:#eeeeec;fill-opacity:1;stroke:none;font-family:Liberation Mono;-inkscape-font-specification:Liberation Mono Bold"
         x="538.40442"
         y="416.5455"
         id="text4278-2"
         sodipodi:linespacing="125%"><tspan
           sodipodi:role="line"
           id="tspan4280-9"
           x="538.40442"
           y="416.5455">220V</tspan></text>
    </g>
    <g
       transform="matrix(0.81227513,0,0,0.81227513,787.56094,138.8866)"
       id="g4342">
      <rect
         style="fill:#592c71;fill-opacity:1;stroke:none"
         id="rect4344"
         width="87.608376"
         height="87.608376"
         x="-667.46417"
         y="194.90302"
         transform="scale(-1,1)"
         ry="3.857964" />
      <path
         sodipodi:type="arc"
         style="fill:#ffffff;fill-opacity:0.97058835;stroke:none"
         id="path4346"
         sodipodi:cx="521.22205"
         sodipodi:cy="222.82623"
         sodipodi:rx="36.654518"
         sodipodi:ry="36.654518"
         d="m 557.87656,222.82623 c 0,20.24373 -16.41078,36.65452 -36.65451,36.65452 -20.24374,0 -36.65452,-16.41079 -36.65452,-36.65452 0,-20.24373 16.41078,-36.65452 36.65452,-36.65452 20.24373,0 36.65451,16.41079 36.65451,36.65452 z"
         transform="matrix(-0.9207805,0,0,0.9207805,1104.18,33.533147)" />
      <path
         style="fill:#592c71;fill-opacity:1;stroke:none"
         d="m 609.23718,228.86763 0,3.40848 c -3.54558,0 -6.39894,2.88551 -6.39894,6.43109 0,3.54558 2.85336,6.4311 6.39894,6.4311 l 0,3.40848 6.43109,0 0,-9.83958 0,-9.83957 -6.43109,0 z"
         id="path4348" />
      <path
         id="path4350"
         d="m 639.26074,228.86763 0,3.40848 c 3.54558,0 6.39894,2.88551 6.39894,6.43109 0,3.54558 -2.85336,6.4311 -6.39894,6.4311 l 0,3.40848 -6.43109,0 0,-9.83958 0,-9.83957 6.43109,0 z"
         style="fill:#592c71;fill-opacity:1;stroke:none" />
    </g>
    <text
       sodipodi:linespacing="125%"
       id="text4352"
       y="366.67526"
       x="1335.0756"
       style="font-size:37.40604401px;font-style:normal;font-variant:normal;font-weight:bold;font-stretch:normal;text-align:start;line-height:125%;writing-mode:lr-tb;text-anchor:start;fill:#592c71;fill-opacity:1;stroke:none;font-family:Liberation Mono;-inkscape-font-specification:Liberation Mono Bold"
       xml:space="preserve"><tspan
         y="366.67526"
         x="1335.0756"
         id="tspan4354"
         sodipodi:role="line">TEAM</tspan></text>
    <text
       xml:space="preserve"
       style="font-size:37.40604401px;font-style:normal;font-variant:normal;font-weight:bold;font-stretch:normal;text-align:start;line-height:125%;writing-mode:lr-tb;text-anchor:start;fill:#592c71;fill-opacity:1;stroke:none;font-family:Liberation Mono;-inkscape-font-specification:Liberation Mono Bold"
       x="1333.9432"
       y="322.22232"
       id="text4356"
       sodipodi:linespacing="125%"><tspan
         sodipodi:role="line"
         id="tspan4358"
         x="1333.9432"
         y="322.22232">220V</tspan></text>
    <rect
       style="fill:#eeeeec;fill-opacity:1;stroke:none"
       id="rect4427"
       width="705.01599"
       height="549.70813"
       x="20.435246"
       y="208.82178" />
    <rect
       style="fill:#eeeeec;fill-opacity:1;stroke:none"
       id="rect4485"
       width="395.48132"
       height="112.29716"
       x="329.96991"
       y="59.217606" />
    <g
       id="g4506"
       inkscape:export-filename="/home/lincoln/Work/mememe/mememe/media/imgs/warn.png"
       inkscape:export-xdpi="14.97"
       inkscape:export-ydpi="14.97">
      <path
         transform="matrix(0.82900585,0,0,0.82900585,64.185054,141.12502)"
         d="m 549.37387,912.32568 a 87.004913,87.004913 0 1 1 -174.00983,0 87.004913,87.004913 0 1 1 174.00983,0 z"
         sodipodi:ry="87.004913"
         sodipodi:rx="87.004913"
         sodipodi:cy="912.32568"
         sodipodi:cx="462.36896"
         id="path4504"
         style="fill:#592c71;fill-opacity:1;stroke:none"
         sodipodi:type="arc" />
      <path
         style="fill:#ffffff;fill-opacity:1"
         id="path4502"
         d="m 438.81842,940.41193 -5.9631,-0.51147 -0.063,-12.91587 7.5495,0.9408 6.766,0.31382 -1.8778,12.64698 -6.411,-0.47426 m 7.6811,-22.81486 -11.128,-1.08007 c 1.1674,-5.62687 0.1515,-48.82373 0.061,-53.43214 l -0.5731,-9.07435 c 3.1003,0.61095 2.6306,0.29007 15.712,1.66598 7.9603,0.83556 8.9993,1.19237 11.6189,1.2957 l -3.4192,10.76087 c -2.9174,8.60651 -11.3738,46.98896 -12.2716,49.86401 z" />
    </g>
    <rect
       style="fill:url(#linearGradient4542);fill-opacity:1;stroke:none"
       id="rect4510"
       width="0.96791565"
       height="55.549973"
       x="-259.8855"
       y="109.90636"
       inkscape:export-filename="/home/lincoln/Work/mememe/mememe/media/imgs/bg-footer.png"
       inkscape:export-xdpi="92.982315"
       inkscape:export-ydpi="92.982315"
       transform="scale(-1,1)" />
    <text
       xml:space="preserve"
       style="font-size:40px;font-style:normal;font-weight:normal;fill:#000000;fill-opacity:1;stroke:none;font-family:Bitstream Vera Sans"
       x="144.81384"
       y="888.05414"
       id="text2909"><tspan
         sodipodi:role="line"
         id="tspan2911"
         x="144.81384"
         y="888.05414"
         style="fill:#ffffff;fill-opacity:1">  </tspan></text>
    <g
       id="g3699"
       inkscape:export-filename="/home/lincoln/Work/mememe/mememe/media/imgs/noicon.png"
       inkscape:export-xdpi="45.220001"
       inkscape:export-ydpi="45.220001">
      <path
         sodipodi:type="arc"
         style="fill:#592c71;fill-opacity:1;stroke:none"
         id="path2903"
         sodipodi:cx="462.36896"
         sodipodi:cy="912.32568"
         sodipodi:rx="87.004913"
         sodipodi:ry="87.004913"
         d="m 549.37387,912.32568 a 87.004913,87.004913 0 1 1 -174.00983,0 87.004913,87.004913 0 1 1 174.00983,0 z"
         transform="matrix(0.82900585,0,0,0.82900585,-195.81495,141.12502)" />
      <text
         sodipodi:linespacing="125%"
         id="text3685"
         y="943.01178"
         x="148.01439"
         style="font-size:136.22473145px;font-style:normal;font-variant:normal;font-weight:bold;font-stretch:normal;text-align:start;line-height:125%;writing-mode:lr-tb;text-anchor:start;fill:#592c71;fill-opacity:1;stroke:none;font-family:Liberation Mono;-inkscape-font-specification:Liberation Mono Bold"
         xml:space="preserve"><tspan
           style="fill:#ffffff;fill-opacity:1"
           y="943.01178"
           x="148.01439"
           id="tspan3687"
           sodipodi:role="line">?</tspan></text>
    </g>
    <g
       id="g4405"
       transform="matrix(1.0404318,0,0,1.0404318,-182.63783,170.48938)">
      <g
         inkscape:export-ydpi="45.222343"
         inkscape:export-xdpi="45.222343"
         inkscape:export-filename="/home/lincoln/Work/mememe/mememe/media/imgs/logo.png"
         id="g4415"
         transform="matrix(0.302127,0,0,0.302127,489.36652,-156.67645)">
        <path
           id="path4417"
           d="M 114.47631,69.206022 C 64.962997,69.616782 -15.586733,112.89967 14.288817,187.98727 c -3.00112,-0.34751 -5.9947703,-0.37175 -8.9062503,0 -18.3717097,2.34578 -26.1815797,18.82604 -23.7812497,37.625 1.52253,11.92419 23.5357097,19.65544 39.59375,26.75 9.25809,4.0903 12.40648,11.29535 19.125,10.4375 6.40777,-0.81817 9.61452,-4.34421 10.9375,-9.375 1.42747,3.3191 2.7817,6.78168 4.125,10.34375 10.13983,26.88806 13.00504,19.15194 80.531243,40.46875 48.22871,15.22494 45.43948,13.343 60.78125,-31.5625 7.4381,-21.77138 49.84885,-31.65419 29.125,-61.90625 C 267.41383,103.90403 177.66732,68.686102 114.47631,69.206022 z"
           style="fill:#592c71;fill-opacity:1;stroke:none" />
        <path
           style="fill:#ffffff;fill-opacity:0.97058835;stroke:none"
           d="m 184.88314,234.78002 c -2.50823,13.92653 -6.2354,19.81387 5.11614,19.86819 17.32023,0.0829 33.3536,-19.6896 35.86183,-33.61613 2.50823,-13.92654 -8.13338,-20.00659 -14.86176,-10.86388 -10.9953,14.94071 -23.95967,23.19657 -26.11621,24.61182 z"
           id="path4419"
           sodipodi:nodetypes="csssc" />
        <path
           style="fill:#592c71;fill-opacity:1;stroke:none"
           d="m 165.14976,260.69087 c -2.89718,-8.44448 -8.89628,-18.94783 -1.01467,-21.91241 2.8823,-1.08415 4.98134,1.92528 9.46848,2.86859 7.78288,1.63615 18.25034,2.95176 20.08803,8.3081 2.89717,8.44449 1.06903,16.86114 -6.81258,19.82573 -7.88162,2.96459 -18.83208,-0.64552 -21.72926,-9.09001 z"
           id="path4421"
           sodipodi:nodetypes="cssssc" />
        <path
           sodipodi:nodetypes="csssc"
           id="path4423"
           d="m 185.15508,234.65775 c 0,20.10015 -21.43838,36.39455 -47.88396,36.39455 -26.44558,0 -54.593793,-30.3323 -54.593793,-50.43245 0,-20.10016 38.301053,-42.6481 54.593793,-22.35666 14.39095,17.9229 30.09867,42.73768 47.88396,36.39456 z"
           style="fill:#ffffff;fill-opacity:0.97058835;stroke:none" />
        <path
           style="fill:#ffffff;fill-opacity:1"
           id="path4425"
           d="m 225.07933,159.86974 c -1.61539,0.15961 -8.34018,1.66618 -10.60045,2.15064 -2.42027,0.64406 -24.53245,17.72747 -25.98502,21.92235 -0.32203,1.45176 -0.48345,3.68542 -0.48345,5.78448 l -0.16202,3.39039 c 0,2.41907 0.67207,6.32054 0.9939,8.41798 1.45378,0.32404 11.97503,0.0411 13.91125,0.36274 l -0.2382,4.33916 c -1.89188,-0.13783 -15.25217,-0.10559 -22.88501,-0.10559 -3.87466,0 -16.33012,0.42722 -20.15701,0.31195 l 0.72346,-4.12636 c 2.09845,-0.16283 10.78686,0.37483 12.69688,-1.64119 0.94876,-1.00035 0.64648,-2.07245 0.64648,-7.88192 l 0,-2.74312 c 0,-1.29135 0,-3.71364 -0.32385,-5.9739 -0.80649,-2.42149 -20.28256,-26.73952 -25.28574,-30.61197 -1.45378,-0.48365 -10.55732,-1.39413 -12.81658,-1.87939 l -0.11245,-3.71727 c 1.12711,-0.56507 11.25015,0.13744 21.07394,-0.22611 6.45636,-0.2386 21.1876,0 23.00512,0.21643 l -0.46572,3.27594 c -1.93622,0.48486 -11.26406,0.66422 -13.68554,1.30908 6.29514,9.3611 16.24809,21.41291 19.47667,26.09385 1.77642,-2.5819 17.37944,-13.31655 17.86309,-17.02858 -2.42188,-0.48608 -10.43822,-1.63959 -11.72997,-1.63959 l -0.76679,-4.22631 c 2.19759,-0.3438 13.75285,0 19.49763,0 4.95784,0 15.55183,0 18.56217,0.24666 l -2.75279,3.97965" />
      </g>
      <text
         sodipodi:linespacing="125%"
         id="text3880"
         y="-80.158546"
         x="211.00049"
         style="font-size:64.37834167px;font-style:normal;font-variant:normal;font-weight:normal;font-stretch:normal;text-align:start;line-height:125%;writing-mode:lr-tb;text-anchor:start;fill:#592c71;fill-opacity:1;stroke:none;font-family:Prototype;-inkscape-font-specification:Prototype"
         xml:space="preserve"><tspan
           y="-80.158546"
           x="211.00049"
           id="tspan3882"
           sodipodi:role="line">MemeMe</tspan></text>
      <g
         transform="matrix(0.83300654,0,0,0.83300654,233.99216,5.367018)"
         id="g4400">
        <rect
           style="fill:#592c71;fill-opacity:1"
           id="rect3888"
           width="378"
           height="41.917809"
           x="-24"
           y="-81.637817"
           ry="11" />
        <text
           sodipodi:linespacing="125%"
           id="text3884"
           y="-53.514416"
           x="-9.5970116"
           style="font-size:27.82328415px;font-style:normal;font-variant:normal;font-weight:normal;font-stretch:normal;text-align:start;line-height:125%;writing-mode:lr-tb;text-anchor:start;fill:#ffffff;fill-opacity:1;stroke:none;font-family:Prototype;-inkscape-font-specification:Prototype"
           xml:space="preserve"><tspan
             y="-53.514416"
             x="-9.5970116"
             id="tspan3886"
             sodipodi:role="line">What is happening near me?</tspan></text>
      </g>
    </g>
  </g>
</svg>
